<svg width="96" height="96" viewBox="0 0 96 96" fill="none" xmlns="http://www.w3.org/2000/svg">
  <path d="M18.3244 80.2267C17.3302 79.6468 16.3355 79.0677 15.3423 78.4863C15.1246 78.3589 14.9119 78.223 14.6826 78.0327C19.8577 69.6515 25.0471 61.3285 30.2367 53.0056C35.326 44.8435 40.4156 36.6817 45.5042 28.5192C45.5839 28.3915 45.6526 28.2569 45.7309 28.1178C45.6572 28.0939 45.6287 28.077 45.5998 28.0763C43.6253 28.0326 41.6508 27.9602 39.6762 27.9557C37.5766 27.9509 35.5213 28.2714 33.5516 29.0286C31.6478 29.7606 30.0457 30.8808 28.9204 32.6281C23.9512 40.3433 18.9742 48.0535 13.9983 55.7644C13.0909 57.1706 12.1752 58.5713 11.251 59.9296C11.2318 59.7269 11.2194 59.5693 11.2189 59.4116C11.2051 54.9383 11.1889 50.4651 11.1808 45.9918C11.1703 40.2062 11.1694 34.4207 11.1572 28.6351C11.1546 27.3842 11.674 26.4664 12.7648 25.8354C23.952 19.3641 35.135 12.8856 46.3173 6.40593C47.4008 5.77808 48.4599 5.78313 49.5475 6.40929C60.7206 12.8419 71.8956 19.271 83.076 25.691C84.2301 26.3537 84.7731 27.2945 84.7713 28.6332C84.7567 39.351 84.7632 50.0687 84.7623 60.7865C84.7623 60.9916 84.7503 61.1968 84.7186 61.3805C84.5534 61.1487 84.4105 60.9403 84.274 60.7277C78.231 51.3165 72.1887 41.9049 66.1456 32.4938C66.0557 32.3538 65.9565 32.2198 65.8268 32.0327C63.4602 36.0485 61.1285 40.0052 58.7918 43.9703C58.9166 44.1817 59.025 44.373 59.1405 44.5599C64.3321 52.9575 69.5249 61.3545 74.7158 69.7526C75.5129 71.0423 76.3015 72.3372 77.07 73.6511C75.93 74.3139 74.8139 74.9553 73.6813 75.5662C67.9013 66.4519 62.1379 57.3681 56.3256 48.2072C53.6047 52.8239 50.928 57.3656 48.2456 61.9171C48.3455 62.0826 48.4314 62.2321 48.5239 62.3772C52.7529 69.0156 56.9826 75.6535 61.211 82.2922C61.2954 82.4247 61.3656 82.5662 61.4154 82.7234C57.3996 85.0569 53.4112 87.3712 49.4216 89.6834C48.5232 90.204 47.6047 90.1944 46.7181 89.6868C42.045 87.0109 37.3795 84.3219 32.7136 81.6335C32.5829 81.5582 32.4775 81.4392 32.3792 81.3066C42.7697 63.6801 53.1415 46.0877 63.5123 28.4947C63.581 28.3781 63.6372 28.2541 63.7019 28.1284C59.0431 28.1284 54.4199 28.1284 49.8122 28.1284C49.704 28.3051 49.6214 28.439 49.5398 28.5736C45.7654 34.8007 41.9907 41.0277 38.2169 47.2551C31.6515 58.0889 25.0864 68.9228 18.5242 79.7585C18.4372 79.9022 18.3901 80.0701 18.3244 80.2267Z" fill="#2D374B"/>
  <path d="M73.6978 75.5967C74.8139 74.9553 75.93 74.3139 77.1018 73.6404C79.3145 72.3636 81.4757 71.1261 83.6228 69.8647C83.8834 69.7116 84.1028 69.4537 84.2807 69.2017C84.6153 68.7274 84.763 68.1804 84.7623 67.5963C84.7613 66.6662 84.7655 65.7361 84.7625 64.8061C84.759 63.6714 84.7503 62.5367 84.7439 61.402C84.7503 61.1968 84.7623 60.9916 84.7623 60.7865C84.7632 50.0687 84.7567 39.351 84.7713 28.6332C84.7731 27.2945 84.2301 26.3537 83.076 25.691C71.8956 19.271 60.7206 12.8419 49.5475 6.40929C48.4599 5.78313 47.4008 5.77808 46.3173 6.40593C35.135 12.8856 23.952 19.3641 12.7648 25.8354C11.674 26.4664 11.1546 27.3842 11.1572 28.6351C11.1694 34.4207 11.1703 40.2062 11.1808 45.9918C11.1889 50.4651 11.2051 54.9383 11.2189 59.4116C11.2194 59.5693 11.2318 59.7269 11.2459 59.9621C11.2216 60.0942 11.1926 60.1503 11.1583 60.203C9.28498 63.0823 7.41161 65.9615 5.53631 68.8394C5.45956 68.9572 5.36412 69.0628 5.27739 69.1741C5.26982 68.9852 5.25565 68.7963 5.25563 68.6074C5.2546 55.1726 5.25689 41.7377 5.25244 28.3029C5.25174 26.194 5.96293 24.3558 7.2913 22.7406C8.04275 21.8268 8.97302 21.1381 10.0003 20.5595C11.772 19.5618 13.5318 18.5429 15.292 17.5249C18.8399 15.4731 22.3852 13.4168 25.9306 11.3606C29.7351 9.15424 33.5373 6.94413 37.3426 4.73909C39.4426 3.52212 41.5479 2.31416 43.6487 1.09827C44.6189 0.536722 45.6655 0.225659 46.7732 0.0817958C48.4078 -0.130512 49.9901 0.0642129 51.4884 0.739407C52.2758 1.09427 53.0169 1.55495 53.7683 1.98638C57.377 4.05846 60.9818 6.13722 64.5884 8.21294C70.3535 11.531 76.1188 14.8488 81.8844 18.1661C83.3872 19.0307 84.9071 19.867 86.3918 20.7618C88.7889 22.2063 90.2077 24.3333 90.6441 27.0994C90.7222 27.5944 90.7427 28.1028 90.7429 28.605C90.7481 41.5182 90.7461 54.4315 90.7479 67.3448C90.7483 69.6247 90.0545 71.6504 88.5572 73.3831C88.0603 73.9581 87.497 74.4508 86.8293 74.8356C82.555 77.299 78.2893 79.7774 74.0199 82.2494C71.1412 83.9161 68.2603 85.5791 65.3816 87.246C61.1802 89.6788 56.9807 92.1149 52.7784 94.5463C51.9622 95.0185 51.1724 95.5344 50.2232 95.7429C48.3197 96.1611 46.4491 96.1057 44.6634 95.3041C43.6894 94.8668 42.7778 94.2874 41.8488 93.7534C37.6945 91.3658 33.5442 88.9714 29.3779 86.5165C29.3797 86.4095 29.3899 86.3618 29.4135 86.322C30.395 84.6611 31.3777 83.0008 32.3603 81.3405C32.4775 81.4392 32.5829 81.5582 32.7136 81.6335C37.3795 84.3219 42.045 87.0109 46.7181 89.6868C47.6047 90.1944 48.5232 90.204 49.4216 89.6834C53.4112 87.3712 57.3996 85.0569 61.4457 82.7144C61.6001 82.6331 61.6987 82.5831 61.7941 82.5278C64.9213 80.7166 68.0493 78.9068 71.1745 77.0921C72.02 76.6012 72.8569 76.0956 73.6978 75.5967Z" fill="#95BDDB"/>
  <path d="M32.3792 81.3066C31.3777 83.0008 30.395 84.6611 29.4135 86.322C29.3899 86.3618 29.3797 86.4095 29.3623 86.4889C28.7022 86.1589 28.0382 85.8021 27.3849 85.4268C24.3862 83.7042 21.3905 81.9765 18.359 80.2386C18.3901 80.0701 18.4372 79.9022 18.5242 79.7585C25.0864 68.9228 31.6515 58.0889 38.2169 47.2551C41.9907 41.0277 45.7654 34.8007 49.5398 28.5736C49.6214 28.439 49.704 28.3051 49.8122 28.1284C54.4199 28.1284 59.0431 28.1284 63.7019 28.1284C63.6372 28.2541 63.581 28.3781 63.5123 28.4947C53.1415 46.0877 42.7697 63.6801 32.3792 81.3066Z" fill="#FEFEFF"/>
  <path d="M5.26856 69.215C5.36411 69.0628 5.45956 68.9572 5.53631 68.8394C7.41161 65.9615 9.28498 63.0823 11.1583 60.203C11.1926 60.1503 11.2216 60.0942 11.2581 60.0071C12.1751 58.5713 13.0909 57.1706 13.9983 55.7644C18.9742 48.0535 23.9512 40.3433 28.9204 32.6281C30.0457 30.8808 31.6478 29.7606 33.5516 29.0286C35.5213 28.2714 37.5766 27.9509 39.6762 27.9557C41.6508 27.9602 43.6253 28.0326 45.5998 28.0763C45.6287 28.077 45.6572 28.0939 45.7309 28.1178C45.6526 28.2569 45.5839 28.3915 45.5042 28.5192C40.4156 36.6817 35.326 44.8435 30.2367 53.0056C25.0471 61.3285 19.8577 69.6515 14.6629 78.006C14.2152 77.8042 13.7649 77.5847 13.3316 77.3356C10.6506 75.7939 7.97344 74.2455 5.25974 72.6789C5.25974 71.552 5.25974 70.4039 5.26856 69.215Z" fill="#FEFFFF"/>
  <path d="M84.7186 61.3805C84.7503 62.5367 84.759 63.6714 84.7625 64.8061C84.7655 65.7361 84.7613 66.6662 84.7623 67.5963C84.763 68.1804 84.6153 68.7274 84.2807 69.2017C84.1028 69.4537 83.8834 69.7116 83.6228 69.8647C81.4757 71.1261 79.3145 72.3636 77.1258 73.619C76.3015 72.3372 75.5129 71.0423 74.7158 69.7526C69.5249 61.3545 64.3321 52.9575 59.1405 44.5599C59.025 44.373 58.9166 44.1817 58.7918 43.9703C61.1285 40.0052 63.4602 36.0485 65.8268 32.0327C65.9565 32.2198 66.0557 32.3538 66.1456 32.4938C72.1887 41.9049 78.231 51.3165 84.274 60.7277C84.4105 60.9403 84.5534 61.1487 84.7186 61.3805Z" fill="#28A0F0"/>
  <path d="M73.6813 75.5662C72.8569 76.0956 72.02 76.6012 71.1745 77.0921C68.0493 78.9068 64.9213 80.7166 61.7941 82.5278C61.6987 82.5831 61.6001 82.6331 61.4727 82.6945C61.3656 82.5662 61.2954 82.4247 61.211 82.2922C56.9826 75.6535 52.7529 69.0156 48.5239 62.3772C48.4314 62.2321 48.3455 62.0826 48.2456 61.9171C50.928 57.3656 53.6047 52.8239 56.3256 48.2072C62.1379 57.3681 67.9013 66.4519 73.6813 75.5662Z" fill="#28A0F0"/>
  </svg>
