<svg width="27" height="27" viewBox="0 0 27 27" fill="none" xmlns="http://www.w3.org/2000/svg">
<g clip-path="url(#clip0_1103_1212)">
<path d="M3.8278 22.3995C3.53669 22.2303 3.24542 22.0614 2.95457 21.8918C2.89082 21.8547 2.82854 21.815 2.76139 21.7596C4.27681 19.315 5.79638 16.8875 7.31603 14.46C8.80631 12.0794 10.2967 9.69882 11.7868 7.3181C11.8101 7.28084 11.8302 7.24161 11.8531 7.20101C11.8316 7.19404 11.8232 7.18912 11.8148 7.18893C11.2366 7.17617 10.6584 7.15507 10.0802 7.15375C9.46536 7.15234 8.86351 7.24582 8.28673 7.46668C7.72924 7.68016 7.26011 8.00691 6.93058 8.51651C5.47547 10.7668 4.0181 13.0156 2.56102 15.2646C2.29531 15.6747 2.02715 16.0833 1.75652 16.4795C1.75092 16.4203 1.74727 16.3744 1.74713 16.3284C1.74311 15.0237 1.73836 13.719 1.73597 12.4143C1.73289 10.7268 1.73263 9.03936 1.72906 7.35191C1.72829 6.98705 1.88039 6.71936 2.19981 6.53532C5.47571 4.64786 8.75039 2.75831 12.0249 0.868397C12.3421 0.685275 12.6523 0.686745 12.9707 0.869377C16.2425 2.74556 19.5149 4.62071 22.7887 6.49321C23.1267 6.68651 23.2857 6.96091 23.2852 7.35136C23.2809 10.4774 23.2828 13.6034 23.2826 16.7294C23.2825 16.7892 23.279 16.8491 23.2698 16.9026C23.2214 16.835 23.1795 16.7742 23.1396 16.7122C21.37 13.9673 19.6007 11.2223 17.8311 8.47737C17.8048 8.43653 17.7757 8.39743 17.7377 8.34287C17.0447 9.51416 16.362 10.6682 15.6777 11.8247C15.7143 11.8863 15.746 11.9421 15.7798 11.9966C17.3001 14.4459 18.8206 16.8951 20.3407 19.3445C20.5741 19.7207 20.805 20.0984 21.0301 20.4816C20.6962 20.6749 20.3694 20.8619 20.0377 21.0401C18.3452 18.3818 16.6575 15.7324 14.9555 13.0604C14.1588 14.407 13.375 15.7316 12.5895 17.0591C12.6188 17.1074 12.6439 17.151 12.671 17.1934C13.9094 19.1295 15.1479 21.0656 16.3861 23.0019C16.4108 23.0405 16.4314 23.0818 16.446 23.1276C15.27 23.8082 14.1021 24.4833 12.9339 25.1577C12.6708 25.3095 12.4018 25.3067 12.1422 25.1586C10.7738 24.3782 9.40763 23.5939 8.04133 22.8098C8.00307 22.7878 7.9722 22.7531 7.94341 22.7144C10.986 17.5734 14.0231 12.4422 17.06 7.31095C17.0801 7.27695 17.0966 7.24079 17.1155 7.20413C15.7513 7.20413 14.3975 7.20413 13.0482 7.20413C13.0166 7.25566 12.9924 7.29471 12.9685 7.33396C11.8632 9.15021 10.7579 10.9664 9.65283 12.7827C7.73033 15.9426 5.8079 19.1025 3.88632 22.2629C3.86084 22.3048 3.84705 22.3538 3.8278 22.3995Z" fill="#2D374B"/>
<path d="M20.0426 21.049C20.3694 20.8619 20.6962 20.6749 21.0394 20.4785C21.6873 20.1061 22.3201 19.7451 22.9489 19.3772C23.0252 19.3325 23.0894 19.2573 23.1415 19.1838C23.2395 19.0455 23.2828 18.886 23.2826 18.7156C23.2822 18.4443 23.2835 18.173 23.2826 17.9018C23.2816 17.5708 23.279 17.2399 23.2771 16.9089C23.279 16.8491 23.2825 16.7892 23.2826 16.7294C23.2828 13.6034 23.2809 10.4774 23.2852 7.35136C23.2857 6.96091 23.1267 6.68651 22.7887 6.49321C19.5149 4.62071 16.2425 2.74556 12.9707 0.869377C12.6523 0.686745 12.3421 0.685275 12.0249 0.868397C8.75039 2.75831 5.47571 4.64786 2.19981 6.53532C1.88039 6.71936 1.72829 6.98705 1.72906 7.35191C1.73263 9.03936 1.73289 10.7268 1.73597 12.4143C1.73836 13.719 1.74311 15.0237 1.74713 16.3284C1.74727 16.3744 1.75092 16.4203 1.75503 16.4889C1.74792 16.5275 1.73942 16.5438 1.72938 16.5592C1.18083 17.399 0.632262 18.2388 0.0831239 19.0782C0.0606484 19.1125 0.0327033 19.1433 0.00730607 19.1758C0.00509019 19.1207 0.000938887 19.0656 0.00093454 19.0105C0.000632783 15.092 0.00130135 11.1735 1.50127e-07 7.255C-0.000204119 6.63992 0.208049 6.10378 0.597031 5.63266C0.817074 5.36616 1.08948 5.16528 1.3903 4.99653C1.90908 4.70551 2.42441 4.40835 2.93984 4.11144C3.97876 3.51298 5.01692 2.91323 6.05511 2.31352C7.16915 1.66999 8.28255 1.02537 9.39682 0.382234C10.0118 0.0272864 10.6283 -0.325038 11.2434 -0.67967C11.5275 -0.843456 11.834 -0.934183 12.1583 -0.976143C12.637 -1.03807 13.1004 -0.981271 13.5391 -0.78434C13.7697 -0.680839 13.9867 -0.546473 14.2067 -0.420639C15.2634 0.183717 16.319 0.790021 17.3751 1.39544C19.0633 2.36321 20.7515 3.33091 22.4398 4.29843C22.8799 4.55062 23.325 4.79456 23.7597 5.05551C24.4617 5.47685 24.8771 6.09723 25.0049 6.90399C25.0277 7.04835 25.0338 7.19664 25.0338 7.34312C25.0353 11.1095 25.0347 14.8759 25.0353 18.6422C25.0354 19.3072 24.8323 19.898 24.3938 20.4034C24.2483 20.5711 24.0833 20.7148 23.8878 20.827C22.6362 21.5455 21.3871 22.2684 20.1369 22.9894C19.2939 23.4755 18.4503 23.9606 17.6074 24.4467C16.3771 25.1563 15.1474 25.8668 13.9168 26.576C13.6778 26.7137 13.4465 26.8642 13.1686 26.925C12.6112 27.047 12.0634 27.0308 11.5405 26.797C11.2553 26.6695 10.9884 26.5005 10.7164 26.3447C9.49989 25.6483 8.28455 24.95 7.06455 24.234C7.0651 24.2028 7.06808 24.1889 7.07497 24.1772C7.36239 23.6928 7.65016 23.2086 7.93788 22.7243C7.9722 22.7531 8.00307 22.7878 8.04133 22.8098C9.40763 23.5939 10.7738 24.3782 12.1422 25.1586C12.4018 25.3067 12.6708 25.3095 12.9339 25.1577C14.1021 24.4833 15.27 23.8082 16.4548 23.125C16.5001 23.1013 16.5289 23.0867 16.5569 23.0706C17.4726 22.5423 18.3885 22.0145 19.3037 21.4852C19.5513 21.342 19.7964 21.1945 20.0426 21.049Z" fill="#95BDDB"/>
<path d="M7.94341 22.7144C7.65016 23.2086 7.36239 23.6928 7.07497 24.1772C7.06808 24.1889 7.0651 24.2028 7.05998 24.2259C6.86669 24.1297 6.67226 24.0256 6.48095 23.9162C5.60286 23.4137 4.72563 22.9098 3.83795 22.4029C3.84705 22.3538 3.86084 22.3048 3.88632 22.2629C5.8079 19.1025 7.73033 15.9426 9.65283 12.7827C10.7579 10.9664 11.8632 9.15021 12.9685 7.33396C12.9924 7.29471 13.0166 7.25566 13.0482 7.20413C14.3975 7.20413 15.7513 7.20413 17.1155 7.20413C17.0966 7.24079 17.0801 7.27695 17.06 7.31095C14.0231 12.4422 10.986 17.5734 7.94341 22.7144Z" fill="#FEFEFF"/>
<path d="M0.00471963 19.1877C0.0327004 19.1433 0.0606484 19.1125 0.0831239 19.0782C0.632262 18.2388 1.18083 17.399 1.72938 16.5592C1.73942 16.5438 1.74791 16.5275 1.75862 16.5021C2.02715 16.0833 2.29531 15.6747 2.56102 15.2646C4.0181 13.0156 5.47547 10.7668 6.93058 8.51651C7.26011 8.00691 7.72924 7.68016 8.28673 7.46668C8.86351 7.24582 9.46536 7.15234 10.0802 7.15375C10.6584 7.15507 11.2366 7.17617 11.8148 7.18893C11.8232 7.18912 11.8316 7.19404 11.8531 7.20101C11.8302 7.24161 11.8101 7.28084 11.7868 7.3181C10.2967 9.69882 8.80631 12.0794 7.31603 14.46C5.79638 16.8875 4.27681 19.315 2.75563 21.7517C2.62451 21.6929 2.49266 21.6289 2.36579 21.5562C1.58072 21.1065 0.79678 20.6549 0.00213599 20.198C0.00213599 19.8693 0.00213599 19.5345 0.00471963 19.1877Z" fill="#FEFFFF"/>
<path d="M23.2698 16.9026C23.279 17.2399 23.2816 17.5708 23.2826 17.9018C23.2835 18.173 23.2822 18.4443 23.2826 18.7156C23.2828 18.886 23.2395 19.0455 23.1415 19.1838C23.0894 19.2573 23.0252 19.3325 22.9489 19.3772C22.3201 19.7451 21.6873 20.1061 21.0464 20.4722C20.805 20.0984 20.5741 19.7207 20.3407 19.3445C18.8206 16.8951 17.3001 14.4459 15.7798 11.9966C15.746 11.9421 15.7143 11.8863 15.6777 11.8247C16.362 10.6682 17.0447 9.51416 17.7377 8.34287C17.7757 8.39743 17.8048 8.43653 17.8311 8.47737C19.6007 11.2223 21.37 13.9673 23.1396 16.7122C23.1795 16.7742 23.2214 16.835 23.2698 16.9026Z" fill="#28A0F0"/>
<path d="M20.0377 21.0401C19.7964 21.1945 19.5513 21.342 19.3037 21.4852C18.3885 22.0145 17.4726 22.5423 16.5569 23.0706C16.5289 23.0867 16.5001 23.1013 16.4627 23.1192C16.4314 23.0818 16.4108 23.0405 16.3861 23.0019C15.1479 21.0656 13.9094 19.1295 12.671 17.1934C12.6439 17.151 12.6188 17.1074 12.5895 17.0591C13.375 15.7316 14.1588 14.407 14.9555 13.0604C16.6575 15.7324 18.3452 18.3818 20.0377 21.0401Z" fill="#28A0F0"/>
</g>
<defs>
<clipPath id="clip0_1103_1212">
<rect width="27" height="27" fill="white"/>
</clipPath>
</defs>
</svg>
