<svg width="122" height="32" viewBox="0 0 122 32" fill="none" xmlns="http://www.w3.org/2000/svg">
 <path d="M4.35878 26.7422C4.02739 26.5489 3.69583 26.3559 3.36475 26.1621C3.29218 26.1196 3.22128 26.0743 3.14485 26.0109C4.8699 23.2172 6.59968 20.4428 8.32954 17.6685C10.026 14.9478 11.7225 12.2272 13.4187 9.5064C13.4453 9.46382 13.4682 9.41898 13.4943 9.37258C13.4697 9.36462 13.4602 9.35899 13.4506 9.35878C12.7924 9.34419 12.1343 9.32008 11.476 9.31857C10.7762 9.31696 10.0911 9.4238 9.43452 9.67621C8.79991 9.92018 8.26589 10.2936 7.89077 10.876C6.23437 13.4478 4.5754 16.0178 2.91676 18.5881C2.61429 19.0569 2.30903 19.5238 2.00097 19.9765C1.99459 19.909 1.99044 19.8564 1.99028 19.8039C1.9857 18.3128 1.98029 16.8217 1.97758 15.3306C1.97407 13.4021 1.97377 11.4736 1.96972 9.54504C1.96884 9.12806 2.14198 8.82212 2.50558 8.61179C6.23464 6.4547 9.96232 4.29521 13.6898 2.13531C14.0509 1.92603 14.404 1.92771 14.7665 2.13643C18.4908 4.28064 22.2159 6.42367 25.9426 8.56367C26.3274 8.78458 26.5083 9.09818 26.5077 9.54442C26.5029 13.117 26.5051 16.6896 26.5048 20.2622C26.5048 20.3305 26.5007 20.3989 26.4902 20.4602C26.4351 20.3829 26.3875 20.3134 26.342 20.2426C24.3277 17.1055 22.3136 13.9683 20.2992 10.8313C20.2692 10.7846 20.2361 10.7399 20.1929 10.6776C19.4041 12.0162 18.6268 13.3351 17.8479 14.6568C17.8895 14.7272 17.9257 14.791 17.9642 14.8533C19.6947 17.6525 21.4256 20.4515 23.1559 23.2509C23.4216 23.6808 23.6845 24.1124 23.9407 24.5504C23.5606 24.7713 23.1886 24.9851 22.8111 25.1887C20.8844 22.1506 18.9633 19.1227 17.0259 16.0691C16.1189 17.608 15.2267 19.1219 14.3325 20.639C14.3658 20.6942 14.3944 20.744 14.4253 20.7924C15.8349 23.0052 17.2448 25.2178 18.6543 27.4307C18.6824 27.4749 18.7058 27.5221 18.7224 27.5745C17.3838 28.3523 16.0544 29.1237 14.7245 29.8945C14.4251 30.068 14.1189 30.0648 13.8233 29.8956C12.2657 29.0036 10.7105 28.1073 9.15518 27.2112C9.11162 27.1861 9.07648 27.1464 9.04371 27.1022C12.5072 21.2267 15.9645 15.3626 19.4214 9.49823C19.4443 9.45937 19.463 9.41805 19.4846 9.37615C17.9317 9.37615 16.3906 9.37615 14.8547 9.37615C14.8187 9.43504 14.7911 9.47967 14.7639 9.52452C13.5058 11.6002 12.2476 13.6759 10.9896 15.7517C8.80115 19.363 6.61278 22.9743 4.42539 26.5862C4.39638 26.6341 4.38069 26.69 4.35878 26.7422Z" fill="#2D374B"/>
 <path d="M22.8166 25.1989C23.1886 24.9851 23.5606 24.7713 23.9513 24.5468C24.6888 24.1212 25.4092 23.7087 26.1249 23.2882C26.2118 23.2372 26.2849 23.1512 26.3442 23.0672C26.4558 22.9091 26.505 22.7268 26.5048 22.5321C26.5044 22.2221 26.5058 21.912 26.5048 21.602C26.5036 21.2238 26.5008 20.8456 26.4986 20.4673C26.5007 20.3989 26.5048 20.3305 26.5048 20.2622C26.5051 16.6896 26.5029 13.117 26.5077 9.54442C26.5083 9.09818 26.3274 8.78458 25.9426 8.56367C22.2159 6.42367 18.4908 4.28064 14.7665 2.13643C14.404 1.92771 14.0509 1.92603 13.6898 2.13531C9.96232 4.29521 6.23464 6.4547 2.50558 8.61179C2.14198 8.82212 1.96884 9.12806 1.96972 9.54504C1.97377 11.4736 1.97407 13.4021 1.97758 15.3306C1.98029 16.8217 1.9857 18.3128 1.99028 19.8039C1.99044 19.8564 1.99459 19.909 1.99928 19.9874C1.99117 20.0314 1.9815 20.0501 1.97007 20.0677C1.34565 21.0274 0.721189 21.9872 0.0960875 22.9465C0.0705029 22.9857 0.0386921 23.0209 0.00978158 23.058C0.00725917 22.9951 0.00253361 22.9321 0.00252866 22.8691C0.00218516 18.3909 0.00294622 13.9126 0.00146501 9.43429C0.00123249 8.73134 0.238294 8.1186 0.681085 7.58019C0.931567 7.27561 1.24166 7.04603 1.58409 6.85318C2.17464 6.52059 2.76125 6.18097 3.34798 5.84164C4.53062 5.15769 5.71239 4.47226 6.8942 3.78688C8.16234 3.05141 9.42977 2.31471 10.6982 1.5797C11.3982 1.17404 12.1 0.771385 12.8002 0.366091C13.1236 0.178907 13.4725 0.0752197 13.8417 0.0272653C14.3866 -0.0435039 14.914 0.0214043 15.4135 0.246469C15.6759 0.364756 15.923 0.518316 16.1734 0.662127C17.3763 1.35282 18.5779 2.04574 19.7801 2.73765C21.7018 3.84366 23.6236 4.94961 25.5455 6.05535C26.0464 6.34357 26.553 6.62235 27.0479 6.92059C27.847 7.40211 28.3199 8.11111 28.4653 9.03313C28.4914 9.19812 28.4982 9.36759 28.4983 9.53499C28.5 13.8394 28.4993 18.1438 28.5 22.4483C28.5001 23.2082 28.2688 23.8835 27.7697 24.461C27.6041 24.6527 27.4163 24.8169 27.1938 24.9452C25.769 25.7663 24.3471 26.5925 22.924 27.4165C21.9644 27.972 21.0041 28.5264 20.0445 29.082C18.6441 29.8929 17.2442 30.705 15.8435 31.5154C15.5714 31.6728 15.3081 31.8448 14.9917 31.9143C14.3572 32.0537 13.7337 32.0352 13.1384 31.768C12.8138 31.6223 12.5099 31.4291 12.2002 31.2511C10.8155 30.4552 9.43204 29.6571 8.04328 28.8388C8.0439 28.8032 8.04729 28.7873 8.05513 28.774C8.38231 28.2204 8.70989 27.6669 9.03742 27.1135C9.07648 27.1464 9.11162 27.1861 9.15518 27.2112C10.7105 28.1073 12.2657 29.0036 13.8233 29.8956C14.1189 30.0648 14.4251 30.068 14.7245 29.8945C16.0544 29.1237 17.3838 28.3523 18.7325 27.5715C18.784 27.5444 18.8169 27.5277 18.8487 27.5093C19.8911 26.9055 20.9337 26.3023 21.9755 25.6974C22.2573 25.5337 22.5363 25.3652 22.8166 25.1989Z" fill="#95BDDB"/>
 <path d="M9.04371 27.1022C8.70989 27.6669 8.38231 28.2204 8.05513 28.774C8.04729 28.7873 8.0439 28.8032 8.03808 28.8296C7.81804 28.7196 7.59672 28.6007 7.37895 28.4756C6.37938 27.9014 5.38081 27.3255 4.37033 26.7462C4.38069 26.69 4.39638 26.6341 4.42539 26.5862C6.61278 22.9743 8.80115 19.363 10.9896 15.7517C12.2476 13.6759 13.5058 11.6002 14.7639 9.52452C14.7911 9.47967 14.8187 9.43504 14.8547 9.37615C16.3906 9.37615 17.9317 9.37615 19.4846 9.37615C19.463 9.41805 19.4443 9.45937 19.4214 9.49823C15.9645 15.3626 12.5072 21.2267 9.04371 27.1022Z" fill="#FEFEFF"/>
 <path d="M0.00683735 23.0717C0.0386888 23.0209 0.0705029 22.9857 0.0960875 22.9465C0.721189 21.9872 1.34565 21.0274 1.97007 20.0677C1.9815 20.0501 1.99117 20.0314 2.00336 20.0024C2.30903 19.5238 2.61429 19.0569 2.91676 18.5881C4.5754 16.0178 6.23437 13.4478 7.89077 10.876C8.26589 10.2936 8.79991 9.92018 9.43452 9.67621C10.0911 9.4238 10.7762 9.31696 11.476 9.31857C12.1343 9.32008 12.7924 9.34419 13.4506 9.35878C13.4602 9.35899 13.4697 9.36462 13.4943 9.37258C13.4682 9.41898 13.4453 9.46382 13.4187 9.5064C11.7225 12.2272 10.026 14.9478 8.32954 17.6685C6.59968 20.4428 4.8699 23.2172 3.13829 26.002C2.98903 25.9347 2.83894 25.8616 2.69452 25.7785C1.80086 25.2646 0.908466 24.7485 0.00389631 24.2263C0.00389631 23.8507 0.00389631 23.468 0.00683735 23.0717Z" fill="#FEFFFF"/>
 <path d="M26.4902 20.4602C26.5008 20.8456 26.5036 21.2238 26.5048 21.602C26.5058 21.912 26.5044 22.2221 26.5048 22.5321C26.505 22.7268 26.4558 22.9091 26.3442 23.0672C26.2849 23.1512 26.2118 23.2372 26.1249 23.2882C25.4092 23.7087 24.6888 24.1212 23.9593 24.5397C23.6845 24.1124 23.4216 23.6808 23.1559 23.2509C21.4256 20.4515 19.6947 17.6525 17.9642 14.8533C17.9257 14.791 17.8895 14.7272 17.8479 14.6568C18.6268 13.3351 19.4041 12.0162 20.1929 10.6776C20.2361 10.7399 20.2692 10.7846 20.2992 10.8313C22.3136 13.9683 24.3277 17.1055 26.342 20.2426C26.3875 20.3134 26.4351 20.3829 26.4902 20.4602Z" fill="#28A0F0"/>
 <path d="M22.8111 25.1887C22.5363 25.3652 22.2573 25.5337 21.9755 25.6974C20.9337 26.3023 19.8911 26.9055 18.8487 27.5093C18.8169 27.5277 18.784 27.5444 18.7415 27.5648C18.7058 27.5221 18.6824 27.4749 18.6543 27.4307C17.2448 25.2178 15.8349 23.0052 14.4253 20.7924C14.3944 20.744 14.3658 20.6942 14.3325 20.639C15.2267 19.1219 16.1189 17.608 17.0259 16.0691C18.9633 19.1227 20.8844 22.1506 22.8111 25.1887Z" fill="#28A0F0"/>
 <path d="M44.2305 12.9277L41.9102 20H40.041L43.2109 11.4688H44.4004L44.2305 12.9277ZM46.1582 20L43.832 12.9277L43.6445 11.4688H44.8457L48.0332 20H46.1582ZM46.0527 16.8242V18.2012H41.5469V16.8242H46.0527ZM50.4062 15.043V20H48.7188V13.6602H50.3066L50.4062 15.043ZM52.3164 13.6191L52.2871 15.1836C52.2051 15.1719 52.1055 15.1621 51.9883 15.1543C51.875 15.1426 51.7715 15.1367 51.6777 15.1367C51.4395 15.1367 51.2324 15.168 51.0566 15.2305C50.8848 15.2891 50.7402 15.377 50.623 15.4941C50.5098 15.6113 50.4238 15.7539 50.3652 15.9219C50.3105 16.0898 50.2793 16.2812 50.2715 16.4961L49.9316 16.3906C49.9316 15.9805 49.9727 15.6035 50.0547 15.2598C50.1367 14.9121 50.2559 14.6094 50.4121 14.3516C50.5723 14.0938 50.7676 13.8945 50.998 13.7539C51.2285 13.6133 51.4922 13.543 51.7891 13.543C51.8828 13.543 51.9785 13.5508 52.0762 13.5664C52.1738 13.5781 52.2539 13.5957 52.3164 13.6191ZM53.1133 11H54.8008V18.5469L54.6309 20H53.1133V11ZM58.8145 16.7656V16.8887C58.8145 17.3613 58.7637 17.7949 58.6621 18.1895C58.5645 18.584 58.4121 18.9258 58.2051 19.2148C57.998 19.5 57.7402 19.7227 57.4316 19.8828C57.127 20.0391 56.7676 20.1172 56.3535 20.1172C55.9668 20.1172 55.6309 20.0391 55.3457 19.8828C55.0645 19.7266 54.8281 19.5059 54.6367 19.2207C54.4453 18.9355 54.291 18.6016 54.1738 18.2188C54.0566 17.8359 53.9688 17.418 53.9102 16.9648V16.6953C53.9688 16.2422 54.0566 15.8242 54.1738 15.4414C54.291 15.0586 54.4453 14.7246 54.6367 14.4395C54.8281 14.1543 55.0645 13.9336 55.3457 13.7773C55.627 13.6211 55.959 13.543 56.3418 13.543C56.7598 13.543 57.123 13.623 57.4316 13.7832C57.7441 13.9395 58.002 14.1621 58.2051 14.4512C58.4121 14.7363 58.5645 15.0762 58.6621 15.4707C58.7637 15.8613 58.8145 16.293 58.8145 16.7656ZM57.127 16.8887V16.7656C57.127 16.5078 57.1074 16.2656 57.0684 16.0391C57.0332 15.8086 56.9707 15.6074 56.8809 15.4355C56.791 15.2598 56.668 15.1211 56.5117 15.0195C56.3594 14.918 56.1621 14.8672 55.9199 14.8672C55.6895 14.8672 55.4941 14.9062 55.334 14.9844C55.1738 15.0625 55.041 15.1719 54.9355 15.3125C54.834 15.4531 54.7578 15.6211 54.707 15.8164C54.6562 16.0078 54.625 16.2188 54.6133 16.4492V17.2168C54.625 17.5254 54.6758 17.7988 54.7656 18.0371C54.8594 18.2715 55 18.457 55.1875 18.5938C55.3789 18.7266 55.627 18.793 55.9316 18.793C56.1699 18.793 56.3672 18.7461 56.5234 18.6523C56.6797 18.5586 56.8008 18.4258 56.8867 18.2539C56.9766 18.082 57.0391 17.8809 57.0742 17.6504C57.1094 17.416 57.127 17.1621 57.127 16.8887ZM61.6445 13.6602V20H59.9512V13.6602H61.6445ZM59.8457 12.0078C59.8457 11.7617 59.9316 11.5586 60.1035 11.3984C60.2754 11.2383 60.5059 11.1582 60.7949 11.1582C61.0801 11.1582 61.3086 11.2383 61.4805 11.3984C61.6562 11.5586 61.7441 11.7617 61.7441 12.0078C61.7441 12.2539 61.6562 12.457 61.4805 12.6172C61.3086 12.7773 61.0801 12.8574 60.7949 12.8574C60.5059 12.8574 60.2754 12.7773 60.1035 12.6172C59.9316 12.457 59.8457 12.2539 59.8457 12.0078ZM66.1445 13.6602V14.8555H62.4531V13.6602H66.1445ZM63.3672 12.0957H65.0547V18.0898C65.0547 18.2734 65.0781 18.4141 65.125 18.5117C65.1758 18.6094 65.25 18.6777 65.3477 18.7168C65.4453 18.752 65.5684 18.7695 65.7168 18.7695C65.8223 18.7695 65.916 18.7656 65.998 18.7578C66.084 18.7461 66.1562 18.7344 66.2148 18.7227L66.2207 19.9648C66.0762 20.0117 65.9199 20.0488 65.752 20.0762C65.584 20.1035 65.3984 20.1172 65.1953 20.1172C64.8242 20.1172 64.5 20.0566 64.2227 19.9355C63.9492 19.8105 63.7383 19.6113 63.5898 19.3379C63.4414 19.0645 63.3672 18.7051 63.3672 18.2598V12.0957ZM68.793 15.043V20H67.1055V13.6602H68.6934L68.793 15.043ZM70.7031 13.6191L70.6738 15.1836C70.5918 15.1719 70.4922 15.1621 70.375 15.1543C70.2617 15.1426 70.1582 15.1367 70.0645 15.1367C69.8262 15.1367 69.6191 15.168 69.4434 15.2305C69.2715 15.2891 69.127 15.377 69.0098 15.4941C68.8965 15.6113 68.8105 15.7539 68.752 15.9219C68.6973 16.0898 68.666 16.2812 68.6582 16.4961L68.3184 16.3906C68.3184 15.9805 68.3594 15.6035 68.4414 15.2598C68.5234 14.9121 68.6426 14.6094 68.7988 14.3516C68.959 14.0938 69.1543 13.8945 69.3848 13.7539C69.6152 13.6133 69.8789 13.543 70.1758 13.543C70.2695 13.543 70.3652 13.5508 70.4629 13.5664C70.5605 13.5781 70.6406 13.5957 70.7031 13.6191ZM75.25 18.4824V13.6602H76.9375V20H75.3496L75.25 18.4824ZM75.4375 17.1816L75.9355 17.1699C75.9355 17.5918 75.8867 17.9844 75.7891 18.3477C75.6914 18.707 75.5449 19.0195 75.3496 19.2852C75.1543 19.5469 74.9082 19.752 74.6113 19.9004C74.3145 20.0449 73.9648 20.1172 73.5625 20.1172C73.2539 20.1172 72.9688 20.0742 72.707 19.9883C72.4492 19.8984 72.2266 19.7598 72.0391 19.5723C71.8555 19.3809 71.7109 19.1367 71.6055 18.8398C71.5039 18.5391 71.4531 18.1777 71.4531 17.7559V13.6602H73.1406V17.7676C73.1406 17.9551 73.1621 18.1133 73.2051 18.2422C73.252 18.3711 73.3164 18.4766 73.3984 18.5586C73.4805 18.6406 73.5762 18.6992 73.6855 18.7344C73.7988 18.7695 73.9238 18.7871 74.0605 18.7871C74.4082 18.7871 74.6816 18.7168 74.8809 18.5762C75.084 18.4355 75.2266 18.2441 75.3086 18.002C75.3945 17.7559 75.4375 17.4824 75.4375 17.1816ZM79.9141 14.9727V20H78.2207V13.6602H79.8086L79.9141 14.9727ZM79.6797 16.6074H79.2109C79.2109 16.166 79.2637 15.7598 79.3691 15.3887C79.4785 15.0137 79.6367 14.6895 79.8438 14.416C80.0547 14.1387 80.3145 13.9238 80.623 13.7715C80.9316 13.6191 81.2891 13.543 81.6953 13.543C81.9766 13.543 82.2344 13.5859 82.4688 13.6719C82.7031 13.7539 82.9043 13.8848 83.0723 14.0645C83.2441 14.2402 83.377 14.4707 83.4707 14.7559C83.5645 15.0371 83.6113 15.375 83.6113 15.7695V20H81.9238V15.957C81.9238 15.668 81.8848 15.4453 81.8066 15.2891C81.7285 15.1328 81.6172 15.0234 81.4727 14.9609C81.332 14.8984 81.1621 14.8672 80.9629 14.8672C80.7441 14.8672 80.5527 14.9121 80.3887 15.002C80.2285 15.0918 80.0957 15.2168 79.9902 15.377C79.8848 15.5332 79.8066 15.7168 79.7559 15.9277C79.7051 16.1387 79.6797 16.3652 79.6797 16.6074ZM83.4531 16.4141L82.8496 16.4902C82.8496 16.0762 82.9004 15.6914 83.002 15.3359C83.1074 14.9805 83.2617 14.668 83.4648 14.3984C83.6719 14.1289 83.9277 13.9199 84.2324 13.7715C84.5371 13.6191 84.8887 13.543 85.2871 13.543C85.5918 13.543 85.8691 13.5879 86.1191 13.6777C86.3691 13.7637 86.582 13.9023 86.7578 14.0938C86.9375 14.2812 87.0742 14.5273 87.168 14.832C87.2656 15.1367 87.3145 15.5098 87.3145 15.9512V20H85.6211V15.9512C85.6211 15.6582 85.582 15.4355 85.5039 15.2832C85.4297 15.127 85.3203 15.0195 85.1758 14.9609C85.0352 14.8984 84.8672 14.8672 84.6719 14.8672C84.4688 14.8672 84.291 14.9082 84.1387 14.9902C83.9863 15.0684 83.8594 15.1777 83.7578 15.3184C83.6562 15.459 83.5801 15.623 83.5293 15.8105C83.4785 15.9941 83.4531 16.1953 83.4531 16.4141ZM90.7832 18.6465L92.4824 11.4688H93.4316L93.6484 12.6641L91.8379 20H90.8184L90.7832 18.6465ZM89.9102 11.4688L91.3164 18.6465L91.1992 20H90.0625L88.1699 11.4688H89.9102ZM95.1426 18.6172L96.5312 11.4688H98.2715L96.3848 20H95.248L95.1426 18.6172ZM93.9648 11.4688L95.6758 18.6758L95.6289 20H94.6094L92.7871 12.6582L93.0215 11.4688H93.9648ZM102.344 18.5703V15.7461C102.344 15.543 102.311 15.3691 102.244 15.2246C102.178 15.0762 102.074 14.9609 101.934 14.8789C101.797 14.7969 101.619 14.7559 101.4 14.7559C101.213 14.7559 101.051 14.7891 100.914 14.8555C100.777 14.918 100.672 15.0098 100.598 15.1309C100.523 15.248 100.486 15.3867 100.486 15.5469H98.7988C98.7988 15.2773 98.8613 15.0215 98.9863 14.7793C99.1113 14.5371 99.293 14.3242 99.5312 14.1406C99.7695 13.9531 100.053 13.8066 100.381 13.7012C100.713 13.5957 101.084 13.543 101.494 13.543C101.986 13.543 102.424 13.625 102.807 13.7891C103.189 13.9531 103.49 14.1992 103.709 14.5273C103.932 14.8555 104.043 15.2656 104.043 15.7578V18.4707C104.043 18.8184 104.064 19.1035 104.107 19.3262C104.15 19.5449 104.213 19.7363 104.295 19.9004V20H102.59C102.508 19.8281 102.445 19.6133 102.402 19.3555C102.363 19.0938 102.344 18.832 102.344 18.5703ZM102.566 16.1387L102.578 17.0938H101.635C101.412 17.0938 101.219 17.1191 101.055 17.1699C100.891 17.2207 100.756 17.293 100.65 17.3867C100.545 17.4766 100.467 17.582 100.416 17.7031C100.369 17.8242 100.346 17.957 100.346 18.1016C100.346 18.2461 100.379 18.377 100.445 18.4941C100.512 18.6074 100.607 18.6973 100.732 18.7637C100.857 18.8262 101.004 18.8574 101.172 18.8574C101.426 18.8574 101.646 18.8066 101.834 18.7051C102.021 18.6035 102.166 18.4785 102.268 18.3301C102.373 18.1816 102.428 18.041 102.432 17.9082L102.877 18.623C102.814 18.7832 102.729 18.9492 102.619 19.1211C102.514 19.293 102.379 19.4551 102.215 19.6074C102.051 19.7559 101.854 19.8789 101.623 19.9766C101.393 20.0703 101.119 20.1172 100.803 20.1172C100.4 20.1172 100.035 20.0371 99.707 19.877C99.3828 19.7129 99.125 19.4883 98.9336 19.2031C98.7461 18.9141 98.6523 18.5859 98.6523 18.2188C98.6523 17.8867 98.7148 17.5918 98.8398 17.334C98.9648 17.0762 99.1484 16.8594 99.3906 16.6836C99.6367 16.5039 99.9434 16.3691 100.311 16.2793C100.678 16.1855 101.104 16.1387 101.588 16.1387H102.566ZM107.125 11V20H105.432V11H107.125ZM110.301 11V20H108.607V11H110.301ZM114.613 20.1172C114.121 20.1172 113.68 20.0391 113.289 19.8828C112.898 19.7227 112.566 19.502 112.293 19.2207C112.023 18.9395 111.816 18.6133 111.672 18.2422C111.527 17.8672 111.455 17.4688 111.455 17.0469V16.8125C111.455 16.332 111.523 15.8926 111.66 15.4941C111.797 15.0957 111.992 14.75 112.246 14.457C112.504 14.1641 112.816 13.9395 113.184 13.7832C113.551 13.623 113.965 13.543 114.426 13.543C114.875 13.543 115.273 13.6172 115.621 13.7656C115.969 13.9141 116.26 14.125 116.494 14.3984C116.732 14.6719 116.912 15 117.033 15.3828C117.154 15.7617 117.215 16.1836 117.215 16.6484V17.3516H112.176V16.2266H115.557V16.0977C115.557 15.8633 115.514 15.6543 115.428 15.4707C115.346 15.2832 115.221 15.1348 115.053 15.0254C114.885 14.916 114.67 14.8613 114.408 14.8613C114.186 14.8613 113.994 14.9102 113.834 15.0078C113.674 15.1055 113.543 15.2422 113.441 15.418C113.344 15.5938 113.27 15.8008 113.219 16.0391C113.172 16.2734 113.148 16.5312 113.148 16.8125V17.0469C113.148 17.3008 113.184 17.5352 113.254 17.75C113.328 17.9648 113.432 18.1504 113.564 18.3066C113.701 18.4629 113.865 18.584 114.057 18.6699C114.252 18.7559 114.473 18.7988 114.719 18.7988C115.023 18.7988 115.307 18.7402 115.568 18.623C115.834 18.502 116.062 18.3203 116.254 18.0781L117.074 18.9688C116.941 19.1602 116.76 19.3438 116.529 19.5195C116.303 19.6953 116.029 19.8398 115.709 19.9531C115.389 20.0625 115.023 20.1172 114.613 20.1172ZM121.281 13.6602V14.8555H117.59V13.6602H121.281ZM118.504 12.0957H120.191V18.0898C120.191 18.2734 120.215 18.4141 120.262 18.5117C120.312 18.6094 120.387 18.6777 120.484 18.7168C120.582 18.752 120.705 18.7695 120.854 18.7695C120.959 18.7695 121.053 18.7656 121.135 18.7578C121.221 18.7461 121.293 18.7344 121.352 18.7227L121.357 19.9648C121.213 20.0117 121.057 20.0488 120.889 20.0762C120.721 20.1035 120.535 20.1172 120.332 20.1172C119.961 20.1172 119.637 20.0566 119.359 19.9355C119.086 19.8105 118.875 19.6113 118.727 19.3379C118.578 19.0645 118.504 18.7051 118.504 18.2598V12.0957Z" fill="#585858"/>
 </svg>
