<svg width="32" height="32" viewBox="0 0 32 32" fill="none" xmlns="http://www.w3.org/2000/svg">
<path d="M6.35732 26.7422C6.02593 26.5489 5.69439 26.3559 5.3633 26.1621C5.29074 26.1196 5.21983 26.0743 5.14339 26.0109C6.86844 23.2172 8.59822 20.4428 10.3281 17.6685C12.0245 14.9478 13.7211 12.2272 15.4173 9.50641C15.4438 9.46383 15.4667 9.41899 15.4928 9.37259C15.4683 9.36463 15.4588 9.359 15.4491 9.35879C14.791 9.3442 14.1328 9.32009 13.4746 9.31858C12.7747 9.31697 12.0896 9.42381 11.4331 9.67622C10.7985 9.92019 10.2644 10.2936 9.88932 10.876C8.23291 13.4478 6.57395 16.0178 4.91531 18.5881C4.61284 19.0569 4.30759 19.5238 3.99953 19.9765C3.99315 19.909 3.989 19.8564 3.98884 19.8039C3.98425 18.3128 3.97885 16.8217 3.97614 15.3306C3.97263 13.4021 3.97232 11.4736 3.96827 9.54505C3.96739 9.12807 4.14053 8.82213 4.50414 8.6118C8.2332 6.45471 11.9609 4.29522 15.6883 2.13532C16.0495 1.92604 16.4025 1.92772 16.765 2.13644C20.4894 4.28065 24.2144 6.42368 27.9412 8.56368C28.3259 8.78459 28.5069 9.09819 28.5063 9.54443C28.5014 13.117 28.5036 16.6896 28.5033 20.2622C28.5033 20.3305 28.4993 20.3989 28.4887 20.4602C28.4337 20.3829 28.386 20.3134 28.3405 20.2426C26.3262 17.1055 24.3121 13.9683 22.2977 10.8313C22.2677 10.7846 22.2347 10.7399 22.1915 10.6776C21.4026 12.0162 20.6254 13.3351 19.8465 14.6568C19.8881 14.7272 19.9242 14.791 19.9627 14.8533C21.6932 17.6525 23.4242 20.4515 25.1544 23.2509C25.4202 23.6808 25.683 24.1124 25.9392 24.5504C25.5592 24.7713 25.1872 24.9851 24.8096 25.1887C22.883 22.1506 20.9618 19.1227 19.0244 16.0691C18.1174 17.608 17.2252 19.1219 16.3311 20.639C16.3644 20.6942 16.393 20.744 16.4238 20.7924C17.8335 23.0052 19.2434 25.2178 20.6529 27.4307C20.681 27.4749 20.7044 27.5221 20.721 27.5745C19.3824 28.3523 18.0529 29.1237 16.723 29.8945C16.4236 30.068 16.1174 30.0648 15.8219 29.8956C14.2642 29.0036 12.709 28.1073 11.1537 27.2112C11.1102 27.1861 11.075 27.1464 11.0423 27.1022C14.5058 21.2267 17.963 15.3626 21.4199 9.49824C21.4428 9.45938 21.4616 9.41806 21.4831 9.37616C19.9302 9.37616 18.3892 9.37616 16.8532 9.37616C16.8172 9.43505 16.7896 9.47968 16.7625 9.52453C15.5043 11.6002 14.2461 13.6759 12.9881 15.7517C10.7997 19.363 8.61134 22.9743 6.42395 26.5862C6.39494 26.6341 6.37923 26.69 6.35732 26.7422Z" fill="black"/>
<path d="M24.8151 25.1989C25.1872 24.9851 25.5592 24.7713 25.9498 24.5468C26.6874 24.1212 27.4077 23.7087 28.1234 23.2882C28.2103 23.2372 28.2834 23.1512 28.3427 23.0672C28.4543 22.9091 28.5035 22.7268 28.5033 22.5321C28.5029 22.2221 28.5043 21.912 28.5034 21.602C28.5022 21.2238 28.4993 20.8456 28.4971 20.4673C28.4993 20.3989 28.5033 20.3305 28.5033 20.2622C28.5036 16.6896 28.5014 13.117 28.5063 9.54442C28.5069 9.09818 28.3259 8.78458 27.9412 8.56367C24.2144 6.42367 20.4894 4.28064 16.765 2.13643C16.4025 1.92771 16.0495 1.92603 15.6883 2.13531C11.9609 4.29521 8.23318 6.4547 4.50412 8.61179C4.14051 8.82212 3.96737 9.12806 3.96825 9.54504C3.9723 11.4736 3.97261 13.4021 3.97612 15.3306C3.97883 16.8217 3.98423 18.3128 3.98882 19.8039C3.98898 19.8564 3.99313 19.909 3.99781 19.9874C3.98971 20.0314 3.98004 20.0501 3.96861 20.0677C3.34418 21.0274 2.71972 21.9872 2.09462 22.9465C2.06904 22.9857 2.03723 23.0209 2.00832 23.058C2.00579 22.9951 2.00107 22.9321 2.00106 22.8691C2.00072 18.3909 2.00148 13.9126 2 9.43429C1.99977 8.73134 2.23683 8.1186 2.67962 7.58019C2.9301 7.27561 3.24019 7.04603 3.58262 6.85318C4.17317 6.52059 4.75979 6.18097 5.34652 5.84164C6.52915 5.15769 7.71093 4.47226 8.89273 3.78688C10.1609 3.05141 11.4283 2.31471 12.6967 1.5797C13.3967 1.17404 14.0985 0.771385 14.7987 0.366091C15.1221 0.178907 15.471 0.0752197 15.8402 0.0272653C16.3851 -0.0435039 16.9126 0.0214043 17.412 0.246469C17.6745 0.364756 17.9215 0.518316 18.172 0.662127C19.3748 1.35282 20.5765 2.04574 21.7787 2.73765C23.7004 3.84366 25.6221 4.94961 27.544 6.05535C28.0449 6.34357 28.5516 6.62235 29.0465 6.92059C29.8455 7.40211 30.3184 8.11111 30.4639 9.03313C30.4899 9.19812 30.4968 9.36759 30.4968 9.53499C30.4986 13.8394 30.4979 18.1438 30.4985 22.4483C30.4986 23.2082 30.2674 23.8835 29.7683 24.461C29.6026 24.6527 29.4149 24.8169 29.1923 24.9452C27.7675 25.7663 26.3456 26.5925 24.9225 27.4165C23.9629 27.972 23.0026 28.5264 22.0431 29.082C20.6426 29.8929 19.2427 30.705 17.842 31.5154C17.5699 31.6728 17.3066 31.8448 16.9903 31.9143C16.3558 32.0537 15.7322 32.0352 15.137 31.768C14.8123 31.6223 14.5085 31.4291 14.1988 31.2511C12.814 30.4552 11.4306 29.6571 10.0418 28.8388C10.0424 28.8032 10.0458 28.7873 10.0537 28.774C10.3808 28.2204 10.7084 27.6669 11.0359 27.1135C11.075 27.1464 11.1102 27.1861 11.1537 27.2112C12.709 28.1073 14.2642 29.0036 15.8219 29.8956C16.1174 30.0648 16.4236 30.068 16.723 29.8945C18.0529 29.1237 19.3824 28.3523 20.7311 27.5715C20.7826 27.5444 20.8154 27.5277 20.8472 27.5093C21.8896 26.9055 22.9323 26.3023 23.974 25.6974C24.2558 25.5337 24.5348 25.3652 24.8151 25.1989Z" fill="black"/>
<path d="M11.042 27.1021C10.7082 27.6668 10.3806 28.2203 10.0535 28.7739C10.0456 28.7872 10.0422 28.8031 10.0364 28.8295C9.81637 28.7195 9.59504 28.6006 9.37727 28.4755C8.37771 27.9013 7.37913 27.3254 6.36865 26.7461C6.37901 26.6899 6.39471 26.634 6.42372 26.5861C8.61111 22.9742 10.7995 19.3629 12.9879 15.7516C14.2459 13.6758 15.5041 11.6001 16.7623 9.52447C16.7894 9.47962 16.817 9.43499 16.853 9.3761C18.389 9.3761 19.93 9.3761 21.4829 9.3761C21.4614 9.418 21.4426 9.45932 21.4197 9.49818C17.9628 15.3625 14.5056 21.2266 11.042 27.1021Z" fill="#FEFEFF"/>
<path d="M2.00538 23.0718C2.03723 23.021 2.06905 22.9858 2.09463 22.9466C2.71973 21.9873 3.34419 21.0275 3.96862 20.0678C3.98005 20.0502 3.98972 20.0315 4.00191 20.0025C4.30758 19.5239 4.61283 19.057 4.9153 18.5882C6.57394 16.0179 8.23291 13.4479 9.88932 10.8761C10.2644 10.2937 10.7985 9.92023 11.4331 9.67626C12.0896 9.42385 12.7747 9.31701 13.4746 9.31862C14.1328 9.32013 14.791 9.34424 15.4491 9.35883C15.4588 9.35904 15.4683 9.36467 15.4928 9.37263C15.4667 9.41903 15.4438 9.46387 15.4173 9.50645C13.7211 12.2273 12.0245 14.9479 10.3281 17.6686C8.59822 20.4429 6.86844 23.2173 5.13684 26.0021C4.98758 25.9348 4.83748 25.8617 4.69307 25.7786C3.7994 25.2647 2.90701 24.7486 2.00244 24.2264C2.00244 23.8508 2.00244 23.4681 2.00538 23.0718Z" fill="#FEFFFF"/>
<path d="M28.4889 20.4602C28.4995 20.8456 28.5024 21.2238 28.5036 21.602C28.5045 21.912 28.5031 22.2221 28.5035 22.5321C28.5037 22.7268 28.4545 22.9091 28.3429 23.0672C28.2836 23.1512 28.2105 23.2372 28.1236 23.2882C27.4079 23.7087 26.6876 24.1212 25.958 24.5397C25.6832 24.1124 25.4204 23.6808 25.1546 23.2509C23.4244 20.4515 21.6934 17.6525 19.9629 14.8533C19.9244 14.791 19.8883 14.7272 19.8467 14.6568C20.6256 13.3351 21.4028 12.0162 22.1917 10.6776C22.2349 10.7399 22.2679 10.7846 22.2979 10.8313C24.3123 13.9683 26.3264 17.1055 28.3407 20.2426C28.3862 20.3134 28.4339 20.3829 28.4889 20.4602Z" fill="white"/>
<path d="M24.8096 25.1887C24.5348 25.3652 24.2558 25.5337 23.974 25.6974C22.9323 26.3023 21.8896 26.9055 20.8472 27.5093C20.8154 27.5277 20.7826 27.5444 20.7401 27.5648C20.7044 27.5221 20.681 27.4749 20.6529 27.4307C19.2434 25.2178 17.8335 23.0052 16.4238 20.7924C16.393 20.744 16.3644 20.6942 16.3311 20.639C17.2252 19.1219 18.1174 17.608 19.0244 16.0691C20.9618 19.1227 22.883 22.1506 24.8096 25.1887Z" fill="white"/>
</svg>
