<svg width="122" height="32" viewBox="0 0 122 32" fill="none" xmlns="http://www.w3.org/2000/svg">
 <g clip-path="url(#clip0_1102_63)">
  <path
   d="M4.85732 26.7421C4.52593 26.5488 4.19439 26.3558 3.8633 26.162C3.79074 26.1195 3.71983 26.0742 3.64339 26.0108C5.36844 23.2171 7.09822 20.4427 8.82809 17.6684C10.5245 14.9477 12.2211 12.2271 13.9173 9.50629C13.9438 9.46371 13.9667 9.41887 13.9928 9.37247C13.9683 9.36451 13.9588 9.35888 13.9491 9.35867C13.291 9.34408 12.6328 9.31997 11.9746 9.31846C11.2747 9.31685 10.5896 9.42369 9.93307 9.6761C9.29845 9.92007 8.76443 10.2935 8.38932 10.8759C6.73291 13.4477 5.07395 16.0177 3.41531 18.588C3.11284 19.0568 2.80759 19.5237 2.49953 19.9764C2.49315 19.9089 2.489 19.8563 2.48884 19.8038C2.48425 18.3127 2.47885 16.8216 2.47614 15.3305C2.47263 13.402 2.47232 11.4735 2.46827 9.54493C2.46739 9.12795 2.64053 8.82201 3.00414 8.61168C6.7332 6.45459 10.4609 4.2951 14.1883 2.1352C14.5495 1.92592 14.9025 1.9276 15.265 2.13632C18.9894 4.28053 22.7144 6.42356 26.4412 8.56356C26.8259 8.78447 27.0069 9.09807 27.0063 9.54431C27.0014 13.1169 27.0036 16.6895 27.0033 20.2621C27.0033 20.3304 26.9993 20.3988 26.9887 20.4601C26.9337 20.3828 26.886 20.3133 26.8405 20.2425C24.8262 17.1054 22.8121 13.9682 20.7977 10.8312C20.7677 10.7845 20.7347 10.7398 20.6915 10.6775C19.9026 12.0161 19.1254 13.335 18.3465 14.6567C18.3881 14.7271 18.4242 14.7909 18.4627 14.8532C20.1932 17.6524 21.9242 20.4514 23.6544 23.2508C23.9202 23.6807 24.183 24.1123 24.4392 24.5503C24.0592 24.7712 23.6872 24.985 23.3096 25.1886C21.383 22.1505 19.4618 19.1226 17.5244 16.069C16.6174 17.6079 15.7252 19.1218 14.8311 20.6389C14.8644 20.6941 14.893 20.7439 14.9238 20.7923C16.3335 23.0051 17.7434 25.2177 19.1529 27.4306C19.181 27.4748 19.2044 27.522 19.221 27.5744C17.8824 28.3522 16.5529 29.1236 15.223 29.8944C14.9236 30.0679 14.6174 30.0647 14.3219 29.8955C12.7642 29.0035 11.209 28.1072 9.65373 27.2111C9.61018 27.186 9.57502 27.1463 9.54226 27.1021C13.0058 21.2266 16.463 15.3625 19.9199 9.49812C19.9428 9.45926 19.9616 9.41794 19.9831 9.37604C18.4302 9.37604 16.8892 9.37604 15.3532 9.37604C15.3172 9.43493 15.2896 9.47956 15.2625 9.52441C14.0043 11.6001 12.7461 13.6758 11.4881 15.7516C9.29971 19.3629 7.11134 22.9742 4.92395 26.5861C4.89494 26.634 4.87923 26.6899 4.85732 26.7421Z"
   fill="white" />
  <path
   d="M23.3151 25.1989C23.6872 24.9851 24.0592 24.7713 24.4498 24.5468C25.1874 24.1212 25.9077 23.7087 26.6234 23.2882C26.7103 23.2372 26.7834 23.1512 26.8427 23.0672C26.9543 22.9091 27.0035 22.7268 27.0033 22.5321C27.0029 22.2221 27.0043 21.912 27.0034 21.602C27.0022 21.2238 26.9993 20.8456 26.9971 20.4673C26.9993 20.3989 27.0033 20.3305 27.0033 20.2622C27.0036 16.6896 27.0014 13.117 27.0063 9.54442C27.0069 9.09818 26.8259 8.78458 26.4412 8.56367C22.7144 6.42367 18.9894 4.28064 15.265 2.13643C14.9025 1.92771 14.5495 1.92603 14.1883 2.13531C10.4609 4.29521 6.73318 6.4547 3.00412 8.61179C2.64051 8.82212 2.46737 9.12806 2.46825 9.54504C2.4723 11.4736 2.47261 13.4021 2.47612 15.3306C2.47883 16.8217 2.48423 18.3128 2.48882 19.8039C2.48898 19.8564 2.49313 19.909 2.49781 19.9874C2.48971 20.0314 2.48004 20.0501 2.46861 20.0677C1.84418 21.0274 1.21972 21.9872 0.594623 22.9465C0.569038 22.9857 0.537227 23.0209 0.508317 23.058C0.505794 22.9951 0.501069 22.9321 0.501064 22.8691C0.50072 18.3909 0.501481 13.9126 0.5 9.43429C0.499768 8.73134 0.736829 8.1186 1.17962 7.58019C1.4301 7.27561 1.74019 7.04603 2.08262 6.85318C2.67317 6.52059 3.25979 6.18097 3.84652 5.84164C5.02915 5.15769 6.21093 4.47226 7.39273 3.78688C8.66087 3.05141 9.9283 2.31471 11.1967 1.5797C11.8967 1.17404 12.5985 0.771385 13.2987 0.366091C13.6221 0.178907 13.971 0.0752197 14.3402 0.0272653C14.8851 -0.0435039 15.4126 0.0214043 15.912 0.246469C16.1745 0.364756 16.4215 0.518316 16.672 0.662127C17.8748 1.35282 19.0765 2.04574 20.2787 2.73765C22.2004 3.84366 24.1221 4.94961 26.044 6.05535C26.5449 6.34357 27.0516 6.62235 27.5465 6.92059C28.3455 7.40211 28.8184 8.11111 28.9639 9.03313C28.9899 9.19812 28.9968 9.36759 28.9968 9.53499C28.9986 13.8394 28.9979 18.1438 28.9985 22.4483C28.9986 23.2082 28.7674 23.8835 28.2683 24.461C28.1026 24.6527 27.9149 24.8169 27.6923 24.9452C26.2675 25.7663 24.8456 26.5925 23.4225 27.4165C22.4629 27.972 21.5026 28.5264 20.5431 29.082C19.1426 29.8929 17.7427 30.705 16.342 31.5154C16.0699 31.6728 15.8066 31.8448 15.4903 31.9143C14.8558 32.0537 14.2322 32.0352 13.637 31.768C13.3123 31.6223 13.0085 31.4291 12.6988 31.2511C11.314 30.4552 9.93058 29.6571 8.54181 28.8388C8.54243 28.8032 8.54582 28.7873 8.55367 28.774C8.88085 28.2204 9.20842 27.6669 9.53595 27.1135C9.57502 27.1464 9.61016 27.1861 9.65371 27.2112C11.209 28.1073 12.7642 29.0036 14.3219 29.8956C14.6174 30.0648 14.9236 30.068 15.223 29.8945C16.5529 29.1237 17.8824 28.3523 19.2311 27.5715C19.2826 27.5444 19.3154 27.5277 19.3472 27.5093C20.3896 26.9055 21.4323 26.3023 22.474 25.6974C22.7558 25.5337 23.0348 25.3652 23.3151 25.1989Z"
   fill="white" />
  <path
   d="M9.54204 27.1023C9.20821 27.667 8.88064 28.2205 8.55346 28.7741C8.54561 28.7874 8.54222 28.8033 8.5364 28.8297C8.31637 28.7197 8.09504 28.6008 7.87727 28.4757C6.87771 27.9015 5.87913 27.3256 4.86865 26.7463C4.87901 26.6901 4.89471 26.6342 4.92372 26.5863C7.11111 22.9744 9.29948 19.3631 11.4879 15.7518C12.7459 13.676 14.0041 11.6003 15.2623 9.52459C15.2894 9.47974 15.317 9.43511 15.353 9.37622C16.889 9.37622 18.43 9.37622 19.9829 9.37622C19.9614 9.41812 19.9426 9.45944 19.9197 9.4983C16.4628 15.3627 13.0056 21.2268 9.54204 27.1023Z"
   fill="#A9A9A9" />
  <path
   d="M0.505383 23.0718C0.537234 23.021 0.569048 22.9858 0.594633 22.9466C1.21973 21.9873 1.84419 21.0275 2.46862 20.0678C2.48005 20.0502 2.48972 20.0315 2.50191 20.0025C2.80758 19.5239 3.11283 19.057 3.4153 18.5882C5.07394 16.0179 6.73291 13.4479 8.38932 10.8761C8.76443 10.2937 9.29845 9.92023 9.93307 9.67626C10.5896 9.42385 11.2747 9.31701 11.9746 9.31862C12.6328 9.32013 13.291 9.34424 13.9491 9.35883C13.9588 9.35904 13.9683 9.36467 13.9928 9.37263C13.9667 9.41903 13.9438 9.46387 13.9173 9.50645C12.2211 12.2273 10.5245 14.9479 8.82809 17.6686C7.09822 20.4429 5.36844 23.2173 3.63684 26.0021C3.48758 25.9348 3.33748 25.8617 3.19307 25.7786C2.2994 25.2647 1.40701 24.7486 0.502441 24.2264C0.502441 23.8508 0.502441 23.4681 0.505383 23.0718Z"
   fill="#A9A9A9" />
  <path
   d="M26.9889 20.4601C26.9995 20.8455 27.0024 21.2237 27.0036 21.6019C27.0045 21.9119 27.0031 22.222 27.0035 22.532C27.0037 22.7267 26.9545 22.909 26.8429 23.0671C26.7836 23.1511 26.7105 23.2371 26.6236 23.2881C25.9079 23.7086 25.1876 24.1211 24.458 24.5396C24.1832 24.1123 23.9204 23.6807 23.6546 23.2508C21.9244 20.4514 20.1934 17.6524 18.4629 14.8532C18.4244 14.7909 18.3883 14.7271 18.3467 14.6567C19.1256 13.335 19.9028 12.0161 20.6917 10.6775C20.7349 10.7398 20.7679 10.7845 20.7979 10.8312C22.8123 13.9682 24.8264 17.1054 26.8407 20.2425C26.8862 20.3133 26.9339 20.3828 26.9889 20.4601Z"
   fill="#A9A9A9" />
  <path
   d="M23.3096 25.1887C23.0348 25.3652 22.7558 25.5337 22.474 25.6974C21.4323 26.3023 20.3896 26.9055 19.3472 27.5093C19.3154 27.5277 19.2826 27.5444 19.2401 27.5648C19.2044 27.5221 19.181 27.4749 19.1529 27.4307C17.7434 25.2178 16.3335 23.0052 14.9238 20.7924C14.893 20.744 14.8644 20.6942 14.8311 20.639C15.7252 19.1219 16.6174 17.608 17.5244 16.0691C19.4618 19.1227 21.383 22.1506 23.3096 25.1887Z"
   fill="#A9A9A9" />
  <path
   d="M44.729 12.9277L42.4087 20H40.5396L43.7094 11.4688H44.8989L44.729 12.9277ZM46.6567 20L44.3306 12.9277L44.1431 11.4688H45.3442L48.5317 20H46.6567ZM46.5513 16.8242V18.2012H42.0454V16.8242H46.5513Z"
   fill="white" />
  <path
   d="M50.9048 15.043V20H49.2173V13.6602H50.8052L50.9048 15.043ZM52.815 13.6191L52.7857 15.1836C52.7037 15.1719 52.6041 15.1621 52.4869 15.1543C52.3736 15.1426 52.2701 15.1367 52.1763 15.1367C51.9381 15.1367 51.731 15.168 51.5552 15.2305C51.3834 15.2891 51.2388 15.377 51.1216 15.4941C51.0084 15.6113 50.9224 15.7539 50.8638 15.9219C50.8091 16.0898 50.7779 16.2812 50.7701 16.4961L50.4302 16.3906C50.4302 15.9805 50.4713 15.6035 50.5533 15.2598C50.6353 14.9121 50.7545 14.6094 50.9107 14.3516C51.0709 14.0938 51.2662 13.8945 51.4966 13.7539C51.7271 13.6133 51.9908 13.543 52.2877 13.543C52.3814 13.543 52.4771 13.5508 52.5748 13.5664C52.6724 13.5781 52.7525 13.5957 52.815 13.6191Z"
   fill="white" />
  <path
   d="M53.6118 11H55.2993V18.5469L55.1294 20H53.6118V11ZM59.313 16.7656V16.8887C59.313 17.3613 59.2622 17.7949 59.1606 18.1895C59.063 18.584 58.9106 18.9258 58.7036 19.2148C58.4965 19.5 58.2387 19.7227 57.9301 19.8828C57.6255 20.0391 57.2661 20.1172 56.852 20.1172C56.4653 20.1172 56.1294 20.0391 55.8442 19.8828C55.563 19.7266 55.3266 19.5059 55.1352 19.2207C54.9438 18.9355 54.7895 18.6016 54.6723 18.2188C54.5551 17.8359 54.4672 17.418 54.4087 16.9648V16.6953C54.4672 16.2422 54.5551 15.8242 54.6723 15.4414C54.7895 15.0586 54.9438 14.7246 55.1352 14.4395C55.3266 14.1543 55.563 13.9336 55.8442 13.7773C56.1255 13.6211 56.4575 13.543 56.8403 13.543C57.2583 13.543 57.6215 13.623 57.9301 13.7832C58.2426 13.9395 58.5005 14.1621 58.7036 14.4512C58.9106 14.7363 59.063 15.0762 59.1606 15.4707C59.2622 15.8613 59.313 16.293 59.313 16.7656ZM57.6255 16.8887V16.7656C57.6255 16.5078 57.6059 16.2656 57.5669 16.0391C57.5317 15.8086 57.4692 15.6074 57.3794 15.4355C57.2895 15.2598 57.1665 15.1211 57.0102 15.0195C56.8579 14.918 56.6606 14.8672 56.4184 14.8672C56.188 14.8672 55.9926 14.9062 55.8325 14.9844C55.6723 15.0625 55.5395 15.1719 55.434 15.3125C55.3325 15.4531 55.2563 15.6211 55.2055 15.8164C55.1547 16.0078 55.1235 16.2188 55.1118 16.4492V17.2168C55.1235 17.5254 55.1743 17.7988 55.2641 18.0371C55.3579 18.2715 55.4985 18.457 55.686 18.5938C55.8774 18.7266 56.1255 18.793 56.4301 18.793C56.6684 18.793 56.8657 18.7461 57.0219 18.6523C57.1782 18.5586 57.2993 18.4258 57.3852 18.2539C57.4751 18.082 57.5376 17.8809 57.5727 17.6504C57.6079 17.416 57.6255 17.1621 57.6255 16.8887Z"
   fill="white" />
  <path
   d="M62.143 13.6602V20H60.4497V13.6602H62.143ZM60.3442 12.0078C60.3442 11.7617 60.4301 11.5586 60.602 11.3984C60.7739 11.2383 61.0044 11.1582 61.2934 11.1582C61.5786 11.1582 61.8071 11.2383 61.979 11.3984C62.1547 11.5586 62.2426 11.7617 62.2426 12.0078C62.2426 12.2539 62.1547 12.457 61.979 12.6172C61.8071 12.7773 61.5786 12.8574 61.2934 12.8574C61.0044 12.8574 60.7739 12.7773 60.602 12.6172C60.4301 12.457 60.3442 12.2539 60.3442 12.0078Z"
   fill="white" />
  <path
   d="M66.6431 13.6602V14.8555H62.9517V13.6602H66.6431ZM63.8658 12.0957H65.5533V18.0898C65.5533 18.2734 65.5767 18.4141 65.6236 18.5117C65.6744 18.6094 65.7486 18.6777 65.8463 18.7168C65.9439 18.752 66.067 18.7695 66.2154 18.7695C66.3209 18.7695 66.4146 18.7656 66.4966 18.7578C66.5826 18.7461 66.6548 18.7344 66.7134 18.7227L66.7193 19.9648C66.5748 20.0117 66.4185 20.0488 66.2506 20.0762C66.0826 20.1035 65.897 20.1172 65.6939 20.1172C65.3228 20.1172 64.9986 20.0566 64.7213 19.9355C64.4478 19.8105 64.2369 19.6113 64.0884 19.3379C63.94 19.0645 63.8658 18.7051 63.8658 18.2598V12.0957Z"
   fill="white" />
  <path
   d="M69.2915 15.043V20H67.604V13.6602H69.1919L69.2915 15.043ZM71.2016 13.6191L71.1723 15.1836C71.0903 15.1719 70.9907 15.1621 70.8735 15.1543C70.7602 15.1426 70.6567 15.1367 70.563 15.1367C70.3247 15.1367 70.1176 15.168 69.9419 15.2305C69.77 15.2891 69.6255 15.377 69.5083 15.4941C69.395 15.6113 69.309 15.7539 69.2505 15.9219C69.1958 16.0898 69.1645 16.2812 69.1567 16.4961L68.8169 16.3906C68.8169 15.9805 68.8579 15.6035 68.9399 15.2598C69.0219 14.9121 69.1411 14.6094 69.2973 14.3516C69.4575 14.0938 69.6528 13.8945 69.8833 13.7539C70.1137 13.6133 70.3774 13.543 70.6743 13.543C70.768 13.543 70.8637 13.5508 70.9614 13.5664C71.059 13.5781 71.1391 13.5957 71.2016 13.6191Z"
   fill="white" />
  <path
   d="M75.7486 18.4824V13.6602H77.4361V20H75.8482L75.7486 18.4824ZM75.9361 17.1816L76.4341 17.1699C76.4341 17.5918 76.3853 17.9844 76.2877 18.3477C76.19 18.707 76.0435 19.0195 75.8482 19.2852C75.6529 19.5469 75.4068 19.752 75.1099 19.9004C74.8131 20.0449 74.4634 20.1172 74.0611 20.1172C73.7525 20.1172 73.4673 20.0742 73.2056 19.9883C72.9478 19.8984 72.7252 19.7598 72.5377 19.5723C72.3541 19.3809 72.2095 19.1367 72.1041 18.8398C72.0025 18.5391 71.9517 18.1777 71.9517 17.7559V13.6602H73.6392V17.7676C73.6392 17.9551 73.6607 18.1133 73.7037 18.2422C73.7506 18.3711 73.815 18.4766 73.897 18.5586C73.9791 18.6406 74.0748 18.6992 74.1841 18.7344C74.2974 18.7695 74.4224 18.7871 74.5591 18.7871C74.9068 18.7871 75.1802 18.7168 75.3795 18.5762C75.5826 18.4355 75.7252 18.2441 75.8072 18.002C75.8931 17.7559 75.9361 17.4824 75.9361 17.1816Z"
   fill="white" />
  <path
   d="M80.4126 14.9727V20H78.7192V13.6602H80.3071L80.4126 14.9727ZM80.1782 16.6074H79.7094C79.7094 16.166 79.7622 15.7598 79.8676 15.3887C79.977 15.0137 80.1352 14.6895 80.3422 14.416C80.5532 14.1387 80.813 13.9238 81.1215 13.7715C81.4301 13.6191 81.7876 13.543 82.1938 13.543C82.4751 13.543 82.7329 13.5859 82.9672 13.6719C83.2016 13.7539 83.4028 13.8848 83.5708 14.0645C83.7426 14.2402 83.8755 14.4707 83.9692 14.7559C84.063 15.0371 84.1098 15.375 84.1098 15.7695V20H82.4223V15.957C82.4223 15.668 82.3833 15.4453 82.3051 15.2891C82.227 15.1328 82.1157 15.0234 81.9712 14.9609C81.8305 14.8984 81.6606 14.8672 81.4614 14.8672C81.2426 14.8672 81.0512 14.9121 80.8872 15.002C80.727 15.0918 80.5942 15.2168 80.4887 15.377C80.3833 15.5332 80.3051 15.7168 80.2544 15.9277C80.2036 16.1387 80.1782 16.3652 80.1782 16.6074ZM83.9516 16.4141L83.3481 16.4902C83.3481 16.0762 83.3989 15.6914 83.5005 15.3359C83.6059 14.9805 83.7602 14.668 83.9633 14.3984C84.1704 14.1289 84.4262 13.9199 84.7309 13.7715C85.0356 13.6191 85.3872 13.543 85.7856 13.543C86.0903 13.543 86.3676 13.5879 86.6176 13.6777C86.8676 13.7637 87.0805 13.9023 87.2563 14.0938C87.436 14.2812 87.5727 14.5273 87.6665 14.832C87.7641 15.1367 87.813 15.5098 87.813 15.9512V20H86.1196V15.9512C86.1196 15.6582 86.0805 15.4355 86.0024 15.2832C85.9282 15.127 85.8188 15.0195 85.6743 14.9609C85.5337 14.8984 85.3657 14.8672 85.1704 14.8672C84.9672 14.8672 84.7895 14.9082 84.6372 14.9902C84.4848 15.0684 84.3579 15.1777 84.2563 15.3184C84.1547 15.459 84.0786 15.623 84.0278 15.8105C83.977 15.9941 83.9516 16.1953 83.9516 16.4141Z"
   fill="white" />
  <path
   d="M91.2818 18.6465L92.981 11.4688H93.9302L94.1469 12.6641L92.3365 20H91.317L91.2818 18.6465ZM90.4088 11.4688L91.815 18.6465L91.6978 20H90.5611L88.6685 11.4688H90.4088ZM95.6412 18.6172L97.0298 11.4688H98.7701L96.8834 20H95.7466L95.6412 18.6172ZM94.4634 11.4688L96.1744 18.6758L96.1275 20H95.108L93.2857 12.6582L93.5201 11.4688H94.4634Z"
   fill="white" />
  <path
   d="M102.842 18.5703V15.7461C102.842 15.543 102.809 15.3691 102.743 15.2246C102.676 15.0762 102.573 14.9609 102.432 14.8789C102.295 14.7969 102.118 14.7559 101.899 14.7559C101.711 14.7559 101.549 14.7891 101.413 14.8555C101.276 14.918 101.17 15.0098 101.096 15.1309C101.022 15.248 100.985 15.3867 100.985 15.5469H99.2974C99.2974 15.2773 99.3599 15.0215 99.4849 14.7793C99.6099 14.5371 99.7916 14.3242 100.03 14.1406C100.268 13.9531 100.551 13.8066 100.879 13.7012C101.211 13.5957 101.582 13.543 101.993 13.543C102.485 13.543 102.922 13.625 103.305 13.7891C103.688 13.9531 103.989 14.1992 104.207 14.5273C104.43 14.8555 104.541 15.2656 104.541 15.7578V18.4707C104.541 18.8184 104.563 19.1035 104.606 19.3262C104.649 19.5449 104.711 19.7363 104.793 19.9004V20H103.088C103.006 19.8281 102.944 19.6133 102.901 19.3555C102.862 19.0938 102.842 18.832 102.842 18.5703ZM103.065 16.1387L103.077 17.0938H102.133C101.911 17.0938 101.717 17.1191 101.553 17.1699C101.389 17.2207 101.254 17.293 101.149 17.3867C101.043 17.4766 100.965 17.582 100.915 17.7031C100.868 17.8242 100.844 17.957 100.844 18.1016C100.844 18.2461 100.877 18.377 100.944 18.4941C101.01 18.6074 101.106 18.6973 101.231 18.7637C101.356 18.8262 101.502 18.8574 101.67 18.8574C101.924 18.8574 102.145 18.8066 102.332 18.7051C102.52 18.6035 102.665 18.4785 102.766 18.3301C102.872 18.1816 102.926 18.041 102.93 17.9082L103.375 18.623C103.313 18.7832 103.227 18.9492 103.118 19.1211C103.012 19.293 102.877 19.4551 102.713 19.6074C102.549 19.7559 102.352 19.8789 102.122 19.9766C101.891 20.0703 101.618 20.1172 101.301 20.1172C100.899 20.1172 100.534 20.0371 100.206 19.877C99.8814 19.7129 99.6236 19.4883 99.4322 19.2031C99.2447 18.9141 99.1509 18.5859 99.1509 18.2188C99.1509 17.8867 99.2134 17.5918 99.3384 17.334C99.4634 17.0762 99.647 16.8594 99.8892 16.6836C100.135 16.5039 100.442 16.3691 100.809 16.2793C101.176 16.1855 101.602 16.1387 102.086 16.1387H103.065Z"
   fill="white" />
  <path d="M107.623 11V20H105.93V11H107.623Z" fill="white" />
  <path d="M110.799 11V20H109.106V11H110.799Z" fill="white" />
  <path
   d="M115.112 20.1172C114.62 20.1172 114.178 20.0391 113.788 19.8828C113.397 19.7227 113.065 19.502 112.791 19.2207C112.522 18.9395 112.315 18.6133 112.17 18.2422C112.026 17.8672 111.954 17.4688 111.954 17.0469V16.8125C111.954 16.332 112.022 15.8926 112.159 15.4941C112.295 15.0957 112.491 14.75 112.745 14.457C113.002 14.1641 113.315 13.9395 113.682 13.7832C114.049 13.623 114.463 13.543 114.924 13.543C115.373 13.543 115.772 13.6172 116.12 13.7656C116.467 13.9141 116.758 14.125 116.993 14.3984C117.231 14.6719 117.411 15 117.532 15.3828C117.653 15.7617 117.713 16.1836 117.713 16.6484V17.3516H112.674V16.2266H116.055V16.0977C116.055 15.8633 116.012 15.6543 115.926 15.4707C115.844 15.2832 115.719 15.1348 115.551 15.0254C115.383 14.916 115.168 14.8613 114.907 14.8613C114.684 14.8613 114.493 14.9102 114.332 15.0078C114.172 15.1055 114.041 15.2422 113.94 15.418C113.842 15.5938 113.768 15.8008 113.717 16.0391C113.67 16.2734 113.647 16.5312 113.647 16.8125V17.0469C113.647 17.3008 113.682 17.5352 113.752 17.75C113.827 17.9648 113.93 18.1504 114.063 18.3066C114.2 18.4629 114.364 18.584 114.555 18.6699C114.75 18.7559 114.971 18.7988 115.217 18.7988C115.522 18.7988 115.805 18.7402 116.067 18.623C116.332 18.502 116.561 18.3203 116.752 18.0781L117.573 18.9688C117.44 19.1602 117.258 19.3438 117.028 19.5195C116.801 19.6953 116.528 19.8398 116.207 19.9531C115.887 20.0625 115.522 20.1172 115.112 20.1172Z"
   fill="white" />
  <path
   d="M121.78 13.6602V14.8555H118.088V13.6602H121.78ZM119.002 12.0957H120.69V18.0898C120.69 18.2734 120.713 18.4141 120.76 18.5117C120.811 18.6094 120.885 18.6777 120.983 18.7168C121.081 18.752 121.204 18.7695 121.352 18.7695C121.457 18.7695 121.551 18.7656 121.633 18.7578C121.719 18.7461 121.791 18.7344 121.85 18.7227L121.856 19.9648C121.711 20.0117 121.555 20.0488 121.387 20.0762C121.219 20.1035 121.034 20.1172 120.831 20.1172C120.459 20.1172 120.135 20.0566 119.858 19.9355C119.584 19.8105 119.373 19.6113 119.225 19.3379C119.077 19.0645 119.002 18.7051 119.002 18.2598V12.0957Z"
   fill="white" />
 </g>
 <defs>
  <clipPath id="clip0_1102_63">
   <rect width="122" height="32" fill="white" />
  </clipPath>
 </defs>
</svg>
