<svg width="128" height="128" viewBox="0 0 128 128" fill="none" xmlns="http://www.w3.org/2000/svg">
 <path
  d="M26.9054 104.283C25.6626 103.558 24.4193 102.835 23.1777 102.108C22.9056 101.949 22.6397 101.779 22.3531 101.541C28.8221 91.0644 35.3087 80.6606 41.7957 70.257C48.1573 60.0544 54.5194 49.8521 60.8802 39.649C60.9797 39.4893 61.0657 39.3212 61.1635 39.1472C61.0714 39.1173 61.0358 39.0962 60.9997 39.0954C58.5315 39.0407 56.0634 38.9503 53.5951 38.9446C50.9707 38.9386 48.4015 39.3392 45.9394 40.2858C43.5596 41.2007 41.557 42.601 40.1503 44.7851C33.9388 54.4291 27.7177 64.0669 21.4978 73.7055C20.3635 75.4632 19.2188 77.2142 18.0636 78.912C18.0397 78.6586 18.0241 78.4616 18.0235 78.2645C18.0063 72.6729 17.986 67.0813 17.9759 61.4897C17.9627 54.2578 17.9616 47.0258 17.9464 39.7939C17.9431 38.2302 18.5924 37.083 19.9559 36.2942C33.9398 28.2051 47.9186 20.107 61.8965 12.0074C63.2509 11.2226 64.5747 11.2289 65.9343 12.0116C79.9006 20.0524 93.8694 28.0888 107.845 36.1138C109.288 36.9422 109.966 38.1182 109.964 39.7916C109.946 53.1887 109.954 66.5859 109.953 79.9831C109.953 80.2395 109.938 80.496 109.898 80.7256C109.692 80.4358 109.513 80.1753 109.342 79.9096C101.789 68.1456 94.2358 56.3811 86.6819 44.6173C86.5695 44.4423 86.4455 44.2747 86.2834 44.0409C83.3252 49.0607 80.4105 54.0065 77.4896 58.9629C77.6456 59.2271 77.7811 59.4662 77.9255 59.6998C84.415 70.1969 90.906 80.6931 97.3946 91.1907C98.391 92.8028 99.3768 94.4215 100.337 96.0639C98.9123 96.8923 97.5172 97.6941 96.1014 98.4577C88.8765 87.0649 81.6722 75.7101 74.4069 64.259C71.0058 70.0299 67.6599 75.707 64.3069 81.3963C64.4318 81.6033 64.5391 81.7901 64.6547 81.9716C69.941 90.2695 75.2281 98.5669 80.5136 106.865C80.6191 107.031 80.7068 107.208 80.7691 107.404C75.7493 110.321 70.7639 113.214 65.7768 116.104C64.6539 116.755 63.5057 116.743 62.3975 116.108C56.5562 112.764 50.7242 109.402 44.8918 106.042C44.7285 105.948 44.5967 105.799 44.4739 105.633C57.4621 83.6002 70.4267 61.6096 83.3902 39.6184C83.4761 39.4726 83.5463 39.3177 83.6272 39.1606C77.8037 39.1606 72.0248 39.1606 66.2651 39.1606C66.1299 39.3814 66.0266 39.5488 65.9246 39.717C61.2066 47.5009 56.4883 55.2846 51.7709 63.0689C43.5643 76.6111 35.3579 90.1535 27.1552 103.698C27.0464 103.878 26.9875 104.088 26.9054 104.283Z"
  fill="#2D374B" />
 <path
  d="M96.1222 98.4958C97.5173 97.6941 98.9123 96.8923 100.377 96.0505C103.143 94.4545 105.844 92.9077 108.528 91.3309C108.854 91.1395 109.128 90.8172 109.351 90.5021C109.769 89.9092 109.954 89.2255 109.953 88.4953C109.951 87.3327 109.957 86.1702 109.953 85.0076C109.949 83.5892 109.938 82.1709 109.93 80.7525C109.938 80.496 109.953 80.2395 109.953 79.9831C109.954 66.5859 109.946 53.1887 109.964 39.7916C109.966 38.1182 109.288 36.9422 107.845 36.1138C93.8694 28.0888 79.9006 20.0524 65.9343 12.0116C64.5747 11.2289 63.2509 11.2226 61.8965 12.0074C47.9186 20.107 33.9398 28.2051 19.9559 36.2942C18.5924 37.083 17.9431 38.2302 17.9464 39.7939C17.9616 47.0258 17.9627 54.2578 17.9759 61.4897C17.986 67.0813 18.0063 72.6729 18.0235 78.2645C18.0241 78.4616 18.0397 78.6586 18.0572 78.9526C18.0268 79.1177 17.9906 79.1879 17.9477 79.2538C15.6061 82.8529 13.2644 86.4518 10.9203 90.0492C10.8243 90.1965 10.705 90.3285 10.5966 90.4676C10.5872 90.2315 10.5694 89.9954 10.5694 89.7593C10.5681 72.9657 10.571 56.1721 10.5654 39.3786C10.5646 36.7425 11.4535 34.4447 13.114 32.4257C14.0533 31.2835 15.2162 30.4226 16.5003 29.6994C18.7148 28.4522 20.9146 27.1786 23.1149 25.9062C27.5497 23.3413 31.9814 20.771 36.4132 18.2008C41.1687 15.4428 45.9216 12.6802 50.6781 9.92386C53.3032 8.40266 55.9348 6.89269 58.5607 5.37284C59.7735 4.6709 61.0818 4.28207 62.4664 4.10224C64.5096 3.83686 66.4876 4.08027 68.3604 4.92426C69.3447 5.36783 70.271 5.94369 71.2103 6.48298C75.7211 9.07307 80.2272 11.6715 84.7354 14.2662C91.9418 18.4137 99.1484 22.5611 106.355 26.7076C108.234 27.7884 110.134 28.8338 111.99 29.9522C114.986 31.7579 116.759 34.4167 117.305 37.8743C117.403 38.4929 117.428 39.1285 117.429 39.7562C117.435 55.8978 117.432 72.0394 117.435 88.181C117.435 91.0309 116.568 93.563 114.696 95.7289C114.075 96.4476 113.371 97.0635 112.537 97.5445C107.194 100.624 101.862 103.722 96.5248 106.812C92.9264 108.895 89.3253 110.974 85.7269 113.057C80.4751 116.098 75.2257 119.144 69.9729 122.183C68.9527 122.773 67.9654 123.418 66.7789 123.679C64.3995 124.201 62.0612 124.132 59.8291 123.13C58.6116 122.584 57.4721 121.859 56.3108 121.192C51.1181 118.207 45.9301 115.214 40.7222 112.146C40.7246 112.012 40.7373 111.952 40.7667 111.902C41.9936 109.826 43.222 107.751 44.4502 105.676C44.5967 105.799 44.7285 105.948 44.8918 106.042C50.7242 109.402 56.5562 112.764 62.3975 116.108C63.5057 116.743 64.6539 116.755 65.7768 116.104C70.7639 113.214 75.7493 110.321 80.807 107.393C81 107.291 81.1232 107.229 81.2425 107.16C85.1515 104.896 89.0615 102.633 92.968 100.365C94.0248 99.7515 95.0711 99.1194 96.1222 98.4958Z"
  fill="#95BDDB" />
 <path
  d="M44.4739 105.633C43.222 107.751 41.9936 109.826 40.7667 111.902C40.7373 111.952 40.7245 112.012 40.7027 112.111C39.8776 111.699 39.0476 111.253 38.231 110.784C34.4826 108.63 30.738 106.471 26.9487 104.298C26.9875 104.088 27.0464 103.878 27.1552 103.698C35.3579 90.1535 43.5643 76.6111 51.7709 63.0689C56.4883 55.2846 61.2066 47.5009 65.9246 39.717C66.0266 39.5488 66.1299 39.3814 66.2651 39.1606C72.0248 39.1606 77.8037 39.1606 83.6272 39.1606C83.5463 39.3177 83.4761 39.4726 83.3902 39.6184C70.4267 61.6096 57.4621 83.6002 44.4739 105.633Z"
  fill="#FEFEFF" />
 <path
  d="M10.5856 90.5187C10.705 90.3285 10.8243 90.1965 10.9203 90.0492C13.2644 86.4518 15.6061 82.8529 17.9477 79.2538C17.9906 79.1879 18.0268 79.1177 18.0726 79.0089C19.2188 77.2142 20.3635 75.4632 21.4978 73.7055C27.7177 64.0669 33.9388 54.4291 40.1503 44.7851C41.557 42.601 43.5596 41.2007 45.9394 40.2858C48.4015 39.3392 50.9707 38.9386 53.5951 38.9446C56.0634 38.9503 58.5315 39.0407 60.9997 39.0954C61.0358 39.0962 61.0714 39.1173 61.1635 39.1472C61.0657 39.3212 60.9797 39.4893 60.8802 39.649C54.5194 49.8521 48.1573 60.0544 41.7957 70.257C35.3087 80.6606 28.822 91.0644 22.3285 101.507C21.7688 101.255 21.206 100.981 20.6644 100.669C17.3131 98.7423 13.9667 96.8068 10.5745 94.8486C10.5745 93.44 10.5745 92.0049 10.5856 90.5187Z"
  fill="#FEFFFF" />
 <path
  d="M109.898 80.7256C109.938 82.1709 109.949 83.5892 109.953 85.0076C109.957 86.1702 109.951 87.3327 109.953 88.4953C109.954 89.2255 109.769 89.9092 109.351 90.5021C109.128 90.8172 108.854 91.1395 108.528 91.3309C105.844 92.9077 103.143 94.4545 100.407 96.0238C99.3768 94.4215 98.391 92.8028 97.3946 91.1907C90.906 80.6931 84.415 70.1969 77.9255 59.6998C77.7811 59.4662 77.6456 59.2271 77.4896 58.9629C80.4105 54.0065 83.3252 49.0607 86.2834 44.0409C86.4455 44.2747 86.5695 44.4423 86.6819 44.6173C94.2358 56.3811 101.789 68.1456 109.342 79.9096C109.513 80.1753 109.692 80.4358 109.898 80.7256Z"
  fill="#28A0F0" />
 <path
  d="M96.1014 98.4577C95.0711 99.1194 94.0248 99.7515 92.968 100.365C89.0615 102.633 85.1515 104.896 81.2425 107.16C81.1232 107.229 81 107.291 80.8407 107.368C80.7068 107.208 80.6191 107.031 80.5136 106.865C75.2281 98.5669 69.941 90.2695 64.6547 81.9716C64.5391 81.7901 64.4318 81.6033 64.3069 81.3963C67.6599 75.707 71.0058 70.0299 74.4069 64.259C81.6722 75.7101 88.8765 87.0649 96.1014 98.4577Z"
  fill="#28A0F0" />
</svg>
