<svg width="427" height="85" viewBox="0 0 427 85" fill="none" xmlns="http://www.w3.org/2000/svg">
<path d="M11.6201 71.0341C10.7364 70.5206 9.85217 70.0079 8.96922 69.4931C8.77571 69.3803 8.58663 69.2599 8.3828 69.0915C12.9832 61.6706 17.5962 54.3013 22.2094 46.932C26.7334 39.7052 31.2578 32.4786 35.7813 25.2514C35.852 25.1383 35.9132 25.0192 35.9827 24.8959C35.9173 24.8748 35.8919 24.8598 35.8663 24.8593C34.111 24.8205 32.3558 24.7565 30.6005 24.7524C28.7341 24.7482 26.9071 25.032 25.1561 25.7024C23.4638 26.3505 22.0396 27.3424 21.0393 28.8894C16.622 35.7206 12.1978 42.5474 7.77453 49.3747C6.9679 50.6198 6.15384 51.86 5.33231 53.0626C5.31528 52.8832 5.30422 52.7436 5.30379 52.604C5.29157 48.6433 5.27715 44.6826 5.26992 40.7219C5.26056 35.5993 5.25976 30.4766 5.24894 25.354C5.24661 24.2464 5.70833 23.4338 6.678 22.8751C16.6227 17.1453 26.5637 11.4091 36.504 5.67192C37.4672 5.11601 38.4087 5.12048 39.3755 5.6749C49.3076 11.3705 59.2415 17.0629 69.1801 22.7472C70.2061 23.334 70.6888 24.167 70.6871 25.3524C70.6742 34.842 70.68 44.3317 70.6792 53.8214C70.6792 54.003 70.6685 54.1847 70.6403 54.3473C70.4935 54.142 70.3664 53.9575 70.2451 53.7693C64.8733 45.4365 59.502 37.1033 54.1301 28.7706C54.0502 28.6466 53.962 28.5279 53.8467 28.3623C51.743 31.918 49.6702 35.4213 47.5931 38.9321C47.704 39.1192 47.8004 39.2886 47.903 39.454C52.518 46.8895 57.1341 54.3243 61.7484 61.7601C62.457 62.902 63.1581 64.0486 63.8412 65.2119C62.8278 65.7987 61.8357 66.3666 60.8288 66.9076C55.6908 58.8376 50.5675 50.7946 45.4008 42.6834C42.9821 46.7712 40.6027 50.7925 38.2182 54.8224C38.307 54.969 38.3833 55.1013 38.4655 55.2299C42.2248 61.1076 45.9848 66.9849 49.7436 72.8629C49.8186 72.9802 49.881 73.1055 49.9252 73.2446C46.3554 75.3108 42.81 77.3599 39.2635 79.4072C38.4649 79.8682 37.6484 79.8597 36.8603 79.4101C32.7063 77.0409 28.5589 74.66 24.4112 72.2797C24.295 72.213 24.2013 72.1076 24.1139 71.9902C33.3505 56.3835 42.5703 40.8068 51.7892 25.2297C51.8503 25.1265 51.9003 25.0167 51.9578 24.9054C47.8164 24.9054 43.7067 24.9054 39.6108 24.9054C39.5146 25.0618 39.4411 25.1804 39.3686 25.2995C36.0134 30.8131 32.658 36.3266 29.3032 41.8405C23.4671 51.4329 17.6311 61.0254 11.7978 70.6195C11.7204 70.7467 11.6785 70.8954 11.6201 71.0341Z" fill="#2D374B"/>
<path d="M60.8436 66.9345C61.8357 66.3666 62.8278 65.7987 63.8695 65.2024C65.8364 64.0719 67.7576 62.9763 69.6662 61.8594C69.8979 61.7238 70.0929 61.4955 70.251 61.2723C70.5485 60.8524 70.6798 60.3681 70.6792 59.8509C70.6783 59.0274 70.682 58.2039 70.6794 57.3804C70.6762 56.3757 70.6685 55.371 70.6628 54.3663C70.6685 54.1847 70.6792 54.003 70.6792 53.8214C70.68 44.3317 70.6742 34.842 70.6871 25.3524C70.6888 24.167 70.2061 23.334 69.1801 22.7472C59.2415 17.0629 49.3076 11.3705 39.3755 5.6749C38.4087 5.12048 37.4672 5.11601 36.504 5.67192C26.5637 11.4091 16.6227 17.1453 6.678 22.8751C5.70833 23.4338 5.24661 24.2464 5.24894 25.354C5.25976 30.4766 5.26056 35.5993 5.26992 40.7219C5.27715 44.6826 5.29157 48.6433 5.30379 52.604C5.30422 52.7436 5.31529 52.8832 5.32778 53.0915C5.30617 53.2084 5.28038 53.2581 5.24989 53.3048C3.58467 55.8541 1.91937 58.4034 0.25234 60.9515C0.184111 61.0558 0.0992778 61.1494 0.0221791 61.2479C0.0154524 61.0806 0.00285019 60.9134 0.002837 60.7461C0.00192095 48.8507 0.00395053 36.9553 4.55742e-07 25.0598C-0.000619646 23.1926 0.631577 21.565 1.81242 20.1349C2.4804 19.3258 3.30736 18.716 4.22055 18.2038C5.79543 17.3203 7.35982 16.4182 8.92452 15.5169C12.0784 13.7001 15.2299 11.8794 18.3816 10.0589C21.7635 8.10531 25.1435 6.14845 28.526 4.19607C30.3929 3.11855 32.2644 2.04899 34.1318 0.97243C34.9942 0.475222 35.9246 0.199802 36.9093 0.0724234C38.3623 -0.115557 39.7689 0.0568552 41.1008 0.654683C41.8008 0.968883 42.4596 1.37678 43.1275 1.75877C46.3354 3.59343 49.5398 5.43399 52.7459 7.27187C57.8707 10.2097 62.9956 13.1474 68.1209 16.0845C69.4568 16.8501 70.8079 17.5906 72.1277 18.3828C74.2586 19.6619 75.5198 21.5452 75.9077 23.9943C75.9771 24.4325 75.9954 24.8827 75.9956 25.3273C76.0002 36.7609 75.9983 48.1946 76 59.6282C76.0003 61.6469 75.3836 63.4405 74.0526 64.9746C73.6109 65.4837 73.1101 65.92 72.5166 66.2607C68.717 68.4418 64.9251 70.6363 61.1299 72.825C58.5709 74.3007 56.01 75.7732 53.451 77.2491C49.7162 79.4031 45.9831 81.56 42.2476 83.7128C41.522 84.131 40.8199 84.5877 39.9761 84.7724C38.2841 85.1426 36.6211 85.0936 35.0338 84.3838C34.1679 83.9967 33.3576 83.4836 32.5318 83.0108C28.839 80.8968 25.1495 78.7767 21.446 76.6032C21.4476 76.5084 21.4567 76.4662 21.4776 76.4309C22.3501 74.9603 23.2237 73.4903 24.0971 72.0203C24.2013 72.1076 24.295 72.213 24.4112 72.2797C28.5589 74.66 32.7063 77.0409 36.8603 79.4101C37.6484 79.8597 38.4649 79.8682 39.2635 79.4072C42.81 77.3599 46.3554 75.3108 49.9522 73.2367C50.0895 73.1647 50.1771 73.1205 50.2619 73.0715C53.0418 71.4678 55.8224 69.8654 58.6004 68.2587C59.3521 67.824 60.0961 67.3763 60.8436 66.9345Z" fill="#95BDDB"/>
<path d="M24.1139 71.9902C23.2237 73.4903 22.3501 74.9603 21.4776 76.4309C21.4567 76.4662 21.4476 76.5084 21.4321 76.5787C20.8453 76.2865 20.2551 75.9706 19.6743 75.6383C17.0087 74.1131 14.3457 72.5833 11.6509 71.0446C11.6785 70.8954 11.7204 70.7467 11.7978 70.6195C17.6311 61.0254 23.4671 51.4329 29.3032 41.8405C32.658 36.3266 36.0134 30.8131 39.3686 25.2995C39.4411 25.1804 39.5146 25.0618 39.6108 24.9054C43.7067 24.9054 47.8164 24.9054 51.9578 24.9054C51.9003 25.0167 51.8503 25.1265 51.7892 25.2297C42.5703 40.8068 33.3505 56.3835 24.1139 71.9902Z" fill="#FEFEFF"/>
<path d="M0.0143274 61.2841C0.099269 61.1494 0.184111 61.0558 0.25234 60.9515C1.91937 58.4034 3.58467 55.8541 5.24989 53.3048C5.28038 53.2581 5.30616 53.2084 5.33868 53.1313C6.15384 51.86 6.9679 50.6198 7.77453 49.3747C12.1978 42.5474 16.622 35.7206 21.0393 28.8894C22.0396 27.3424 23.4638 26.3505 25.1561 25.7024C26.9071 25.032 28.7341 24.7482 30.6005 24.7524C32.3558 24.7565 34.111 24.8205 35.8663 24.8593C35.8919 24.8598 35.9173 24.8748 35.9827 24.8959C35.9132 25.0192 35.852 25.1383 35.7813 25.2514C31.2578 32.4786 26.7334 39.7052 22.2094 46.932C17.5962 54.3013 12.9832 61.6706 8.36532 69.0678C7.96727 68.8892 7.56699 68.6948 7.18187 68.4742C4.79863 67.1091 2.4188 65.7382 0.00648426 64.3511C0.00648426 63.3533 0.00648425 62.3368 0.0143274 61.2841Z" fill="#FEFFFF"/>
<path d="M70.6403 54.3473C70.6685 55.371 70.6762 56.3757 70.6794 57.3804C70.682 58.2039 70.6783 59.0274 70.6792 59.8509C70.6798 60.3681 70.5485 60.8524 70.251 61.2723C70.0929 61.4955 69.8979 61.7238 69.6662 61.8594C67.7576 62.9763 65.8364 64.0719 63.8908 65.1835C63.1581 64.0486 62.457 62.902 61.7484 61.7601C57.1341 54.3243 52.518 46.8895 47.903 39.454C47.8004 39.2886 47.704 39.1192 47.5931 38.9321C49.6702 35.4213 51.743 31.918 53.8467 28.3623C53.962 28.5279 54.0502 28.6466 54.1301 28.7706C59.502 37.1033 64.8733 45.4365 70.2451 53.7693C70.3664 53.9575 70.4935 54.142 70.6403 54.3473Z" fill="#28A0F0"/>
<path d="M60.8288 66.9076C60.0961 67.3763 59.3521 67.824 58.6004 68.2587C55.8224 69.8654 53.0418 71.4678 50.2619 73.0715C50.1771 73.1205 50.0895 73.1647 49.9762 73.2191C49.881 73.1055 49.8186 72.9802 49.7436 72.8629C45.9848 66.9849 42.2248 61.1076 38.4655 55.2299C38.3833 55.1013 38.307 54.969 38.2182 54.8224C40.6027 50.7925 42.9821 46.7712 45.4008 42.6834C50.5675 50.7946 55.6908 58.8376 60.8288 66.9076Z" fill="#28A0F0"/>
<path d="M104.922 30.2109L95.6406 58.5H88.1641L100.844 24.375H105.602L104.922 30.2109ZM112.633 58.5L103.328 30.2109L102.578 24.375H107.383L120.133 58.5H112.633ZM112.211 45.7969V51.3047H94.1875V45.7969H112.211ZM129.625 38.6719V58.5H122.875V33.1406H129.227L129.625 38.6719ZM137.266 32.9766L137.148 39.2344C136.82 39.1875 136.422 39.1484 135.953 39.1172C135.5 39.0703 135.086 39.0469 134.711 39.0469C133.758 39.0469 132.93 39.1719 132.227 39.4219C131.539 39.6562 130.961 40.0078 130.492 40.4766C130.039 40.9453 129.695 41.5156 129.461 42.1875C129.242 42.8594 129.117 43.625 129.086 44.4844L127.727 44.0625C127.727 42.4219 127.891 40.9141 128.219 39.5391C128.547 38.1484 129.023 36.9375 129.648 35.9062C130.289 34.875 131.07 34.0781 131.992 33.5156C132.914 32.9531 133.969 32.6719 135.156 32.6719C135.531 32.6719 135.914 32.7031 136.305 32.7656C136.695 32.8125 137.016 32.8828 137.266 32.9766ZM140.453 22.5H147.203V52.6875L146.523 58.5H140.453V22.5ZM163.258 45.5625V46.0547C163.258 47.9453 163.055 49.6797 162.648 51.2578C162.258 52.8359 161.648 54.2031 160.82 55.3594C159.992 56.5 158.961 57.3906 157.727 58.0312C156.508 58.6562 155.07 58.9688 153.414 58.9688C151.867 58.9688 150.523 58.6562 149.383 58.0312C148.258 57.4062 147.312 56.5234 146.547 55.3828C145.781 54.2422 145.164 52.9062 144.695 51.375C144.227 49.8438 143.875 48.1719 143.641 46.3594V45.2812C143.875 43.4688 144.227 41.7969 144.695 40.2656C145.164 38.7344 145.781 37.3984 146.547 36.2578C147.312 35.1172 148.258 34.2344 149.383 33.6094C150.508 32.9844 151.836 32.6719 153.367 32.6719C155.039 32.6719 156.492 32.9922 157.727 33.6328C158.977 34.2578 160.008 35.1484 160.82 36.3047C161.648 37.4453 162.258 38.8047 162.648 40.3828C163.055 41.9453 163.258 43.6719 163.258 45.5625ZM156.508 46.0547V45.5625C156.508 44.5312 156.43 43.5625 156.273 42.6562C156.133 41.7344 155.883 40.9297 155.523 40.2422C155.164 39.5391 154.672 38.9844 154.047 38.5781C153.438 38.1719 152.648 37.9688 151.68 37.9688C150.758 37.9688 149.977 38.125 149.336 38.4375C148.695 38.75 148.164 39.1875 147.742 39.75C147.336 40.3125 147.031 40.9844 146.828 41.7656C146.625 42.5312 146.5 43.375 146.453 44.2969V47.3672C146.5 48.6016 146.703 49.6953 147.062 50.6484C147.438 51.5859 148 52.3281 148.75 52.875C149.516 53.4062 150.508 53.6719 151.727 53.6719C152.68 53.6719 153.469 53.4844 154.094 53.1094C154.719 52.7344 155.203 52.2031 155.547 51.5156C155.906 50.8281 156.156 50.0234 156.297 49.1016C156.438 48.1641 156.508 47.1484 156.508 46.0547ZM174.578 33.1406V58.5H167.805V33.1406H174.578ZM167.383 26.5312C167.383 25.5469 167.727 24.7344 168.414 24.0938C169.102 23.4531 170.023 23.1328 171.18 23.1328C172.32 23.1328 173.234 23.4531 173.922 24.0938C174.625 24.7344 174.977 25.5469 174.977 26.5312C174.977 27.5156 174.625 28.3281 173.922 28.9688C173.234 29.6094 172.32 29.9297 171.18 29.9297C170.023 29.9297 169.102 29.6094 168.414 28.9688C167.727 28.3281 167.383 27.5156 167.383 26.5312ZM192.578 33.1406V37.9219H177.812V33.1406H192.578ZM181.469 26.8828H188.219V50.8594C188.219 51.5938 188.312 52.1562 188.5 52.5469C188.703 52.9375 189 53.2109 189.391 53.3672C189.781 53.5078 190.273 53.5781 190.867 53.5781C191.289 53.5781 191.664 53.5625 191.992 53.5312C192.336 53.4844 192.625 53.4375 192.859 53.3906L192.883 58.3594C192.305 58.5469 191.68 58.6953 191.008 58.8047C190.336 58.9141 189.594 58.9688 188.781 58.9688C187.297 58.9688 186 58.7266 184.891 58.2422C183.797 57.7422 182.953 56.9453 182.359 55.8516C181.766 54.7578 181.469 53.3203 181.469 51.5391V26.8828ZM203.172 38.6719V58.5H196.422V33.1406H202.773L203.172 38.6719ZM210.812 32.9766L210.695 39.2344C210.367 39.1875 209.969 39.1484 209.5 39.1172C209.047 39.0703 208.633 39.0469 208.258 39.0469C207.305 39.0469 206.477 39.1719 205.773 39.4219C205.086 39.6562 204.508 40.0078 204.039 40.4766C203.586 40.9453 203.242 41.5156 203.008 42.1875C202.789 42.8594 202.664 43.625 202.633 44.4844L201.273 44.0625C201.273 42.4219 201.438 40.9141 201.766 39.5391C202.094 38.1484 202.57 36.9375 203.195 35.9062C203.836 34.875 204.617 34.0781 205.539 33.5156C206.461 32.9531 207.516 32.6719 208.703 32.6719C209.078 32.6719 209.461 32.7031 209.852 32.7656C210.242 32.8125 210.562 32.8828 210.812 32.9766ZM229 52.4297V33.1406H235.75V58.5H229.398L229 52.4297ZM229.75 47.2266L231.742 47.1797C231.742 48.8672 231.547 50.4375 231.156 51.8906C230.766 53.3281 230.18 54.5781 229.398 55.6406C228.617 56.6875 227.633 57.5078 226.445 58.1016C225.258 58.6797 223.859 58.9688 222.25 58.9688C221.016 58.9688 219.875 58.7969 218.828 58.4531C217.797 58.0938 216.906 57.5391 216.156 56.7891C215.422 56.0234 214.844 55.0469 214.422 53.8594C214.016 52.6562 213.812 51.2109 213.812 49.5234V33.1406H220.562V49.5703C220.562 50.3203 220.648 50.9531 220.82 51.4688C221.008 51.9844 221.266 52.4062 221.594 52.7344C221.922 53.0625 222.305 53.2969 222.742 53.4375C223.195 53.5781 223.695 53.6484 224.242 53.6484C225.633 53.6484 226.727 53.3672 227.523 52.8047C228.336 52.2422 228.906 51.4766 229.234 50.5078C229.578 49.5234 229.75 48.4297 229.75 47.2266ZM247.656 38.3906V58.5H240.883V33.1406H247.234L247.656 38.3906ZM246.719 44.9297H244.844C244.844 43.1641 245.055 41.5391 245.477 40.0547C245.914 38.5547 246.547 37.2578 247.375 36.1641C248.219 35.0547 249.258 34.1953 250.492 33.5859C251.727 32.9766 253.156 32.6719 254.781 32.6719C255.906 32.6719 256.938 32.8438 257.875 33.1875C258.812 33.5156 259.617 34.0391 260.289 34.7578C260.977 35.4609 261.508 36.3828 261.883 37.5234C262.258 38.6484 262.445 40 262.445 41.5781V58.5H255.695V42.3281C255.695 41.1719 255.539 40.2812 255.227 39.6562C254.914 39.0312 254.469 38.5938 253.891 38.3438C253.328 38.0938 252.648 37.9688 251.852 37.9688C250.977 37.9688 250.211 38.1484 249.555 38.5078C248.914 38.8672 248.383 39.3672 247.961 40.0078C247.539 40.6328 247.227 41.3672 247.023 42.2109C246.82 43.0547 246.719 43.9609 246.719 44.9297ZM261.812 44.1562L259.398 44.4609C259.398 42.8047 259.602 41.2656 260.008 39.8438C260.43 38.4219 261.047 37.1719 261.859 36.0938C262.688 35.0156 263.711 34.1797 264.93 33.5859C266.148 32.9766 267.555 32.6719 269.148 32.6719C270.367 32.6719 271.477 32.8516 272.477 33.2109C273.477 33.5547 274.328 34.1094 275.031 34.875C275.75 35.625 276.297 36.6094 276.672 37.8281C277.062 39.0469 277.258 40.5391 277.258 42.3047V58.5H270.484V42.3047C270.484 41.1328 270.328 40.2422 270.016 39.6328C269.719 39.0078 269.281 38.5781 268.703 38.3438C268.141 38.0938 267.469 37.9688 266.688 37.9688C265.875 37.9688 265.164 38.1328 264.555 38.4609C263.945 38.7734 263.438 39.2109 263.031 39.7734C262.625 40.3359 262.32 40.9922 262.117 41.7422C261.914 42.4766 261.812 43.2812 261.812 44.1562ZM291.133 53.0859L297.93 24.375H301.727L302.594 29.1562L295.352 58.5H291.273L291.133 53.0859ZM287.641 24.375L293.266 53.0859L292.797 58.5H288.25L280.68 24.375H287.641ZM308.57 52.9688L314.125 24.375H321.086L313.539 58.5H308.992L308.57 52.9688ZM303.859 24.375L310.703 53.2031L310.516 58.5H306.438L299.148 29.1328L300.086 24.375H303.859ZM337.375 52.7812V41.4844C337.375 40.6719 337.242 39.9766 336.977 39.3984C336.711 38.8047 336.297 38.3438 335.734 38.0156C335.188 37.6875 334.477 37.5234 333.602 37.5234C332.852 37.5234 332.203 37.6562 331.656 37.9219C331.109 38.1719 330.688 38.5391 330.391 39.0234C330.094 39.4922 329.945 40.0469 329.945 40.6875H323.195C323.195 39.6094 323.445 38.5859 323.945 37.6172C324.445 36.6484 325.172 35.7969 326.125 35.0625C327.078 34.3125 328.211 33.7266 329.523 33.3047C330.852 32.8828 332.336 32.6719 333.977 32.6719C335.945 32.6719 337.695 33 339.227 33.6562C340.758 34.3125 341.961 35.2969 342.836 36.6094C343.727 37.9219 344.172 39.5625 344.172 41.5312V52.3828C344.172 53.7734 344.258 54.9141 344.43 55.8047C344.602 56.6797 344.852 57.4453 345.18 58.1016V58.5H338.359C338.031 57.8125 337.781 56.9531 337.609 55.9219C337.453 54.875 337.375 53.8281 337.375 52.7812ZM338.266 43.0547L338.312 46.875H334.539C333.648 46.875 332.875 46.9766 332.219 47.1797C331.562 47.3828 331.023 47.6719 330.602 48.0469C330.18 48.4062 329.867 48.8281 329.664 49.3125C329.477 49.7969 329.383 50.3281 329.383 50.9062C329.383 51.4844 329.516 52.0078 329.781 52.4766C330.047 52.9297 330.43 53.2891 330.93 53.5547C331.43 53.8047 332.016 53.9297 332.688 53.9297C333.703 53.9297 334.586 53.7266 335.336 53.3203C336.086 52.9141 336.664 52.4141 337.07 51.8203C337.492 51.2266 337.711 50.6641 337.727 50.1328L339.508 52.9922C339.258 53.6328 338.914 54.2969 338.477 54.9844C338.055 55.6719 337.516 56.3203 336.859 56.9297C336.203 57.5234 335.414 58.0156 334.492 58.4062C333.57 58.7812 332.477 58.9688 331.211 58.9688C329.602 58.9688 328.141 58.6484 326.828 58.0078C325.531 57.3516 324.5 56.4531 323.734 55.3125C322.984 54.1562 322.609 52.8438 322.609 51.375C322.609 50.0469 322.859 48.8672 323.359 47.8359C323.859 46.8047 324.594 45.9375 325.562 45.2344C326.547 44.5156 327.773 43.9766 329.242 43.6172C330.711 43.2422 332.414 43.0547 334.352 43.0547H338.266ZM356.5 22.5V58.5H349.727V22.5H356.5ZM369.203 22.5V58.5H362.43V22.5H369.203ZM386.453 58.9688C384.484 58.9688 382.719 58.6562 381.156 58.0312C379.594 57.3906 378.266 56.5078 377.172 55.3828C376.094 54.2578 375.266 52.9531 374.688 51.4688C374.109 49.9688 373.82 48.375 373.82 46.6875V45.75C373.82 43.8281 374.094 42.0703 374.641 40.4766C375.188 38.8828 375.969 37.5 376.984 36.3281C378.016 35.1562 379.266 34.2578 380.734 33.6328C382.203 32.9922 383.859 32.6719 385.703 32.6719C387.5 32.6719 389.094 32.9688 390.484 33.5625C391.875 34.1562 393.039 35 393.977 36.0938C394.93 37.1875 395.648 38.5 396.133 40.0312C396.617 41.5469 396.859 43.2344 396.859 45.0938V47.9062H376.703V43.4062H390.227V42.8906C390.227 41.9531 390.055 41.1172 389.711 40.3828C389.383 39.6328 388.883 39.0391 388.211 38.6016C387.539 38.1641 386.68 37.9453 385.633 37.9453C384.742 37.9453 383.977 38.1406 383.336 38.5312C382.695 38.9219 382.172 39.4688 381.766 40.1719C381.375 40.875 381.078 41.7031 380.875 42.6562C380.688 43.5938 380.594 44.625 380.594 45.75V46.6875C380.594 47.7031 380.734 48.6406 381.016 49.5C381.312 50.3594 381.727 51.1016 382.258 51.7266C382.805 52.3516 383.461 52.8359 384.227 53.1797C385.008 53.5234 385.891 53.6953 386.875 53.6953C388.094 53.6953 389.227 53.4609 390.273 52.9922C391.336 52.5078 392.25 51.7812 393.016 50.8125L396.297 54.375C395.766 55.1406 395.039 55.875 394.117 56.5781C393.211 57.2812 392.117 57.8594 390.836 58.3125C389.555 58.75 388.094 58.9688 386.453 58.9688ZM413.125 33.1406V37.9219H398.359V33.1406H413.125ZM402.016 26.8828H408.766V50.8594C408.766 51.5938 408.859 52.1562 409.047 52.5469C409.25 52.9375 409.547 53.2109 409.938 53.3672C410.328 53.5078 410.82 53.5781 411.414 53.5781C411.836 53.5781 412.211 53.5625 412.539 53.5312C412.883 53.4844 413.172 53.4375 413.406 53.3906L413.43 58.3594C412.852 58.5469 412.227 58.6953 411.555 58.8047C410.883 58.9141 410.141 58.9688 409.328 58.9688C407.844 58.9688 406.547 58.7266 405.438 58.2422C404.344 57.7422 403.5 56.9453 402.906 55.8516C402.312 54.7578 402.016 53.3203 402.016 51.5391V26.8828Z" fill="#2D374B"/>
<path d="M397.123 2.403H392.488V17.509H389.656V2.403H385V0H397.123V2.403Z" fill="#2D374B"/>
<path d="M426.912 17.509H424.079V3.819L419.359 17.509H416.376L411.677 3.884V17.509H409.123V0H413.05L417.964 14.376L422.878 0H426.912V17.509Z" fill="#2D374B"/>
</svg>
